<svg width="600" height="600" viewBox="0 0 600 600" version="1.1" xmlns="http://www.w3.org/2000/svg"><title>stego-logo</title><desc>Created with Sketch.</desc><g id="Page-1" stroke="none" stroke-width="1" fill="none" fill-rule="evenodd"><g id="stego-logo" fill="#000000"><g id="Page-1" transform="translate(26.249570, 71.705864)"><path d="M541.52 284.32C541.52 284.32 503.52 283.98 457.24 254.63 416.82 228.99 389.83 116.6 296.75 84.49 203.67 52.39 125.81 168.77 95.31 168.77 64.81 168.77 69.61 151.91 43.95 151.91 5.43 151.91 0.62 168.77 10.26 173.57 24.67 180.79 38.56 168.15 60 182.41 86.16 205.1 121.81 216.91 137.87 224.94 153.92 232.96 201.25 244.18 220.53 244.18 239.78 244.18 325.67 222.52 346.53 192.82 368.19 205.65 401.36 246.6 425.97 264.24 462.88 290.71 541.52 284.29 541.52 284.29L541.52 284.32Z" id="Fill-1"/><path d="M170.76 229.74C170.76 229.74 172.37 296.35 165.95 301.96 159.53 307.57 144.29 309.98 140.26 301.15 136.26 292.32 151.48 220.1 151.48 220.1L170.76 229.74Z" id="Fill-2"/><path d="M103.33 205.69C103.33 205.69 119.39 227.35 117.78 240.99 116.17 254.63 99.03 265.29 99.31 293.96 99.4 303.72 117.32 302.42 122.58 296.38 126.68 291.67 120.97 281.13 124.2 273.91 127.42 266.68 150.67 245.82 150.67 245.82L156.28 214.52 103.33 205.69Z" id="Fill-3"/><path d="M262.22 231.35C262.22 231.35 300.74 269.07 299.94 281.1 299.13 293.12 291.57 294.11 294.33 301.15 296.69 307.2 319.22 306.76 325.64 301.15 332.06 295.54 316.8 221.71 305.58 216.06 294.37 210.45 262.25 231.32 262.25 231.32L262.22 231.35Z" id="Fill-4"/><path d="M317.61 209.68C317.61 209.68 350.53 236.16 356.14 248.21 361.75 260.24 372.19 276.29 368.97 282.71 365.75 289.13 352.11 304.37 344.08 297.15 336.05 289.93 342.47 285.93 341.66 277.1 340.85 268.27 304.74 248.21 304.74 248.21L296.72 216.1 317.61 209.68Z" id="Fill-5"/><path d="M517.78 282.61C520.47 275.77 527.01 268.27 538.76 259.93 529.27 263.21 519.55 265.29 511.52 275.83 513.03 266.25 516.1 256.06 525.12 243.47 510.3 253.57 507.73 265.41 502.99 276.94L517.78 282.61Z" id="Fill-6"/><path d="M492.24 274.65C500.48 259.34 513.68 247.34 526.3 234.91 513.03 244.03 497.94 250.04 488.85 266.13 485.26 256.24 482.41 242.69 480.33 225.28 479.56 243.31 476.92 269.6 480.33 269.54L492.24 274.65Z" id="Fill-7"/><path d="M466.69 262.19C466.69 262.19 473.52 261.63 475.22 257.67 476.92 253.7 475.22 240.06 475.22 240.06 475.22 240.06 464.99 243.47 463.32 246.88 461.61 250.29 461.61 258.78 461.61 258.78L466.69 262.19Z" id="Fill-8"/><path d="M445.25 246.66C445.25 246.66 445.84 240.24 448.25 237.23 450.67 234.24 460.28 232.43 460.28 232.43 460.28 232.43 463.5 241.05 461.68 244.86 459.88 248.68 451.85 252.68 451.85 252.68L445.25 246.66Z" id="Fill-9"/><path d="M425.69 220.35C425.69 220.35 430.68 214.61 435.73 211.26 440.79 207.92 456.09 209.84 456.09 209.84 456.09 209.84 456.77 224.32 452.22 229.18 447.7 234.01 433.72 236.19 433.72 236.19L425.69 220.35Z" id="Fill-10"/><path d="M409.11 196.35C409.11 196.35 410.81 183.59 419.62 180.76 428.42 177.91 447.42 181.04 447.42 181.04 447.42 181.04 447.7 198.93 443.45 203.46 439.21 207.98 418.77 209.12 418.77 209.12L409.11 196.35Z" id="Fill-11"/><path d="M390.38 169.39C390.38 169.39 393.58 158.66 400.61 154.63 406.79 151.1 431.27 152.37 431.27 152.37 431.27 152.37 425.66 173.7 417.94 177.91 411.06 181.69 402.35 182.44 402.35 182.44L390.38 169.39Z" id="Fill-12"/><path d="M361.99 135.64C361.99 135.64 358.4 120.54 368.22 113.78 382.7 103.87 436.88 106.96 436.88 106.96 436.88 106.96 411 149.43 404.24 150.94 399.13 152.09 384.96 156.06 384.96 156.06L361.99 135.64Z" id="Fill-13"/><path d="M320.87 101.88C320.87 101.88 317.46 82.6 322.01 74.08 326.53 65.56 367.7 34.34 387.84 44.85 374.79 69.83 383.32 100.18 376.22 106.99 369.13 113.82 354.92 112.11 351.83 117.22 348.69 122.34 320.89 101.91 320.89 101.91L320.87 101.88Z" id="Fill-14"/><path d="M250.87 80.93C250.87 80.93 244.12 73.02 247.59 59.82 251.96 43.24 278.96 36.08 298.95 4.8 298.95 4.8 325.7 49.1 323.13 61.62 320.55 74.17 310.97 78.6 309.49 88.86 308 99.12 250.84 80.9 250.84 80.9L250.87 80.93Z" id="Fill-15"/><path d="M213.8 92.08C213.8 92.08 192.17 85.89 190.78 71.75 187.67 40.2 211.7 2.45 211.7 2.45 212.01 5.24 244.86 40.79 246.47 45.13 250.38 55.67 237.73 85.43 237.73 85.43L213.8 92.08Z" id="Fill-16"/><path d="M174.72 115.49C174.72 115.49 156.47 110.56 152.03 104.14 146.92 96.76 146.64 67.54 144.37 55.33 152.59 61.28 180.11 74.05 186.37 78.88 189.51 83.41 192.05 101.57 193.75 104.14 195.46 106.68 174.75 115.49 174.75 115.49L174.72 115.49Z" id="Fill-17"/><path d="M145.21 139.04C145.21 139.04 130.74 132.23 126.21 127.14 121.69 122.03 117.41 90.81 117.41 90.81 117.41 90.81 147.48 103.87 151.75 108.7 156 113.54 158.57 127.42 158.57 127.42L145.21 139.04Z" id="Fill-18"/><path d="M123.67 153.52L133.31 146.7C133.31 146.7 133.59 143.57 130.18 137.34 126.77 131.11 105.2 124.57 105.2 124.57 105.2 124.57 108.05 142.45 111.74 145.56 115.43 148.68 123.64 153.49 123.64 153.49L123.67 153.52Z" id="Fill-19"/><path d="M106 166.6C106 166.6 96.34 163.22 93.36 157.86 90.39 152.5 92 136.69 92 136.69 92 136.69 107.18 142.52 109.94 147.01 112.7 151.51 113.51 162.39 113.51 162.39L106 166.6Z" id="Fill-20"/><path d="M83.38 169.11C83.38 169.11 81.67 160.03 81.4 157.2 81.12 154.36 84.52 147.57 84.52 147.57 84.52 147.57 89.92 153.24 89.92 158.63 89.92 164.03 89.08 171.69 89.08 171.69L83.38 169.11Z" id="Fill-21"/><path d="M74.57 165.14C74.57 165.14 73.43 159.47 73.15 155.78 72.87 152.09 75.69 145.28 75.69 145.28 75.69 145.28 79.38 153.21 78.82 156.34 78.26 159.47 77.4 166.84 77.4 166.84L74.57 165.14Z" id="Fill-22"/><path d="M65.77 159.19C65.77 159.19 65.49 155.51 66.05 152.37 66.61 149.25 68.91 146.42 68.91 146.42 68.91 146.42 71.17 150.67 70.89 153.52 70.6 156.37 68.62 161.17 68.62 161.17L65.77 159.19Z" id="Fill-23"/><path d="M57.77 155.1C57.77 155.1 56.63 152.06 56.81 149.49 57 146.92 59.3 144.6 59.3 144.6 59.3 144.6 61.96 147.17 61.96 150.67 61.96 154.17 60.44 156.5 60.44 156.5L57.77 155.1Z" id="Fill-24"/></g><path d="M83.6 409.73L87.09 409.86 92.08 409.86 92.08 410.14 92.83 410 93.24 410.14 97.69 409.86 105.75 409.86 119.36 410 119.9 409.86 120.52 410 132.82 410.14 137.61 410.14 142.87 410.41 142.87 432.28 142.73 433.1 142.87 433.86 142.73 434.27 133.98 434.27 133.44 434.13 132.82 434.27 132.55 434.27 132 434.13 131.87 434.27 131.73 434.27 129.95 434.13 128.86 434.27 128.86 434.13 128.72 434.27 126.81 434.13 106.85 434.27 106.71 434.4 106.03 434.27 97.96 434.27 97.14 433.99 96.25 434.13 95.57 433.51C95.57 433.65 95.18 433.86 94.4 434.13L94.13 435.16 94.27 437.14 94.13 437.14 94.27 437.27 94.27 438.03 94.13 438.71C92.85 438.8 92.22 438.98 92.22 439.26L92.22 439.46C93.58 439.64 94.27 439.83 94.27 440.01L94.27 444.32 94.13 444.86 94.27 445.48 93.99 446.78 94.4 447.87 94.54 447.87 94.54 447.73 94.4 447.05 94.54 446.91 94.68 446.91 95.43 447.32C95.79 447.05 96.2 446.91 96.66 446.91L112.18 446.91 121.34 447.6 121.34 447.46C121.34 447.28 121.2 447.19 120.93 447.19L120.93 446.91 122.09 446.91 123.66 446.78 124.07 447.05 124.21 446.91 130.7 446.91 131.59 447.05 132 446.91C133.55 446.91 135.56 447.57 138.02 448.9 138.15 449.49 138.72 450.1 139.73 450.74 141.82 452.56 142.87 455.34 142.87 459.08L142.73 459.08 142.87 459.22 142.87 459.83 142.73 459.97 142.87 460.11 142.87 460.93 142.73 461.82 142.87 462.5 142.87 462.7 142.73 462.84 142.87 462.98 142.73 464.55 142.87 473.57 142.87 482.32 142.73 483.62 142.87 484.17 142.6 487.38 142.73 488.68 142.73 489.64 142.6 490.25 142.73 490.66 142.6 491.96 142.73 494.83 142.73 496.68C142.73 500.69 141.03 503.95 137.61 506.45 136.15 507.59 133.67 508.16 130.16 508.16L111.77 508.16 109.44 508.03 109.31 508.16 108.28 508.03 97.96 508.03 95.98 507.89 95.43 508.03 94.27 507.75 93.38 508.03 90.64 508.03 89.96 508.16C88.87 507.98 86.86 507.89 83.95 507.89L70.55 507.89 70.41 508.03 70.27 508.03 70.14 507.27 70.27 486.9 70.14 483.9 71.16 483.76 73.42 483.76 77.31 483.9 79.3 483.76 79.3 483.9 79.78 483.76 82.78 483.9 83.47 483.76 84.22 483.9 84.36 483.76 84.49 483.76 86.34 484.37C87.2 484.15 88.37 484.03 89.82 484.03L90.37 484.03 90.37 484.17 89.35 484.37 89.35 484.65 101.72 484.03 108.01 484.03 109.31 484.17 109.44 484.03 109.58 484.03 113.34 484.17 117.1 484.17C117.28 484.17 117.37 484.42 117.37 484.92L117.65 484.92C117.65 484.33 117.74 484.03 117.92 484.03L118.95 484.03 119.08 484.17 119.22 484.17 119.22 483.9 119.36 483.9 119.22 483.76 119.22 483.62 119.49 481.91 119.36 476.85 119.36 475.01 119.22 473.03 119.36 472.27 119.22 471.45 119.36 470.84 118.67 470.7 117.65 470.7C117.65 470.34 117.56 470.16 117.37 470.16 117.1 470.16 116.94 470.34 116.89 470.7L116.62 470.7C114.07 470.34 111.93 470.16 110.2 470.16L109.44 470.29 108.62 470.16 106.3 470.16 104.73 470.43 104.73 470.29 104.59 470.43 104.45 470.43 100.69 470.7 100.56 470.57 99.87 470.7 95.43 470.7 93.11 470.84 92.97 470.7 92.83 470.7 91.81 470.84 91.26 470.7 89.82 470.84 83.6 470.84C79.5 470.84 77.45 470.41 77.45 469.54 77.45 469.08 76.84 468.81 75.61 468.72 74.15 468.72 72.62 467.03 71.03 463.66L70.89 463.11 71.03 463.11C71.25 463.21 72.21 464.5 73.9 467.01L74.03 467.15 74.17 467.15 70.68 461.95C70.41 461.31 70.27 460.54 70.27 459.63 70.32 459.17 70.41 458.94 70.55 458.94L70.41 458.81 70.41 450.88 70.55 449.44 70.14 449.31 70.14 448.62 70.27 448.62 70.41 448.76 70.55 448.76 70.68 438.44 70.68 435.29C70.68 434.61 70.46 434.27 70 434.27L70.14 432.56 70.14 424.08 70 423.19 70.14 422.65 70 422.65 70.41 421.89 70 421.35 70.14 421.21 70.14 420.32C70.14 419.32 70.57 417.75 71.44 415.6 74.08 411.78 77.29 409.86 81.07 409.86L81.48 409.86 81.89 410.14 82.51 410.14 82.51 409.86 83.6 409.73ZM171.8 409.73L171.8 410 171.94 409.86 172.62 410 174.74 409.86 199.28 410 208.37 410 210.76 410.14 210.76 410 210.9 410.14 212.61 410 215.89 410.14 218.42 410 218.42 410.41 218.28 410.41C216.32 410.68 215.34 410.98 215.34 411.3L217.46 411.57C228.77 410.61 235.9 410.14 238.86 410.14L239.13 411.16 239 414.72 239 420.66 238.86 422.92 239 423.06 239 423.19 238.86 426.88 238.86 434.13C238.86 434.36 238.63 434.49 238.18 434.54L237.83 434.54 237.83 434.4 236.47 434.54 235.44 434.54 232.23 434.27 227.65 434.4 227.24 434.4 227.1 434.27 226.97 434.4 223.41 434.4 221.84 434.27 221.43 434.4 219.31 434.27 219.17 434.4 219.04 434.4 217.74 433.99 217.05 434.4 216.3 434.27 215.75 434.4 214.87 434.13 214.73 434.13 214.32 434.4 214.46 434.54 214.46 435.09C214.46 435.27 214.18 435.36 213.64 435.36L213.64 435.57C213.64 435.75 213.91 435.84 214.46 435.84L214.46 436.52 214.18 436.93 214.46 436.93 214.46 437.21 214.18 438.37 214.46 438.64 214.46 440.08 214.32 445 214.32 445.34 214.46 445.34 214.32 446.71 214.32 453.13 214.18 453.95 214.32 454.09 214.18 457.92 214.18 489.3 214.32 513.97 214.46 516.09 214.32 516.23 214.32 516.37 214.46 516.91 214.32 516.91 214.46 517.05 214.46 529.56 214.32 530.38 214.46 531.13 214.46 531.95 214.32 531.95C212.13 530.17 208.12 526.21 202.29 520.06 201.88 519.97 198.71 516.89 192.79 510.83 191.37 509.46 190.67 508.62 190.67 508.3L190.8 507.82 190.67 507.82C190.26 507.82 189.96 507.21 189.78 505.98L189.91 505.29 189.91 504.33 189.78 504.13C189.96 503.58 190.12 503.31 190.26 503.31L190.05 496.95 190.05 494.08 190.26 492.65 190.05 491.41 190.05 489.02 190.26 486.7 190.05 486.29 190.26 486.15 190.05 485.47 190.26 484.58 190.05 483.14 190.26 480.2 190.05 476.1 190.05 475.97 190.26 475.08 190.05 474.94 190.05 474.8 190.26 474.12 190.05 472.14C190.19 467.67 190.39 465.21 190.67 464.75L190.53 464.62 190.67 463.18 190.67 462.36C190.67 462.13 190.46 462.02 190.05 462.02L190.05 460.79C190.1 458.69 190.21 457.65 190.39 457.65 190.21 457.65 190.05 456.55 189.91 454.36L189.78 454.36C189.96 453.91 190.05 453.07 190.05 451.83L190.05 445.61 190.26 443.36 190.05 443.22 190.05 443.02 190.26 442.61 190.05 441.51 190.26 440.35 190.05 440.21 190.05 440.08 190.26 439.94 190.26 439.8 190.05 439.39 190.53 435.7 190.39 434.95 191.21 434.81 191.21 434.54C190.85 434.54 190.67 434.45 190.67 434.27L190.39 433.99 190.05 433.99 189.37 434.54 187.8 434.4 187.66 434.54 187.52 434.54 185.13 434.27 183.83 434.27 179.05 434.4 174.33 434.27 173.51 434.27 172.62 434.13 172.48 434.27 171.53 434.13 168.66 434.13 166.54 433.99 166.54 433.86 166.26 423.33 166.26 411.02C166.26 410.3 166.4 409.91 166.67 409.86L170.36 409.86 171.8 409.73ZM262.18 410.14L271.75 410.14 272.3 410.27 272.71 410.14 273.74 410.27 274.97 410.14 274.97 410.27 275.17 410.14 277.29 410.27 280.23 410.27 280.85 410.41 281.39 410.27 281.53 410.41 281.67 410.27 282.14 410.27 282.69 410.41 283.65 410.27 292.33 410.27 292.47 410.41 292.67 410.27 292.81 410.27 308.6 410.14 309.69 410.14 311.68 410.27 313.11 410.14 313.73 410.27 314.27 410.14 315.09 410.27 316.53 410.14 316.67 410.14 317.28 410.27 317.42 410.14 317.83 410.14 317.83 410.27 319.54 410.14 321.25 410.14 321.25 410.41 323.09 410.27 323.5 410.41 324.8 410.14 327.67 410.27 335.33 410.27 335.33 412.87C334.74 414.88 334.44 417.66 334.44 421.21L334.44 434.2 333.07 434.33 328.77 434.33 322.82 434.47 322.82 434.33 322.68 434.47 322.54 434.47C321.59 434.43 321.11 434.33 321.11 434.2L320.7 434.47 319.95 434.33 318.99 434.47C318.31 434.38 317.96 434.29 317.96 434.2L316.8 434.47 316.26 434.2 316.12 434.33 312.7 434.33 312.56 434.2 312.43 434.33 310.72 434.33 310.58 434.2 310.44 434.33 307.98 434.33 307.16 434.2 306.41 434.33 305.59 434.33 305.45 434.2 305.32 434.33 302.72 434.33 302.58 434.2 302.45 434.33 301.9 434.33 301.76 434.2 301.63 434.33 300.46 434.33 300.33 434.2 300.19 434.33 298.76 434.33 298.62 434.2 298.48 434.33 298.35 434.33 294.93 434.06 292.33 434.2 287.07 434.2C287.07 433.79 286.97 433.58 286.79 433.58 286.61 433.58 286.52 433.74 286.52 434.06L286.38 434.2 283.99 434.2 283.37 434.74 285.49 434.61 285.97 434.61 286.11 435.63 285.7 435.77 285.7 436.04 285.97 436.04 285.97 436.32C285.97 436.5 285.77 436.59 285.36 436.59L285.36 436.73C285.77 436.73 285.97 436.86 285.97 437.14L285.84 437.62 285.97 437.75 286.11 437.75 285.97 443.7 285.97 446.71 286.25 447.39 286.38 447.39 286.79 447.12 286.93 447.12C287.61 447.16 287.95 447.25 287.95 447.39 289.32 447.21 291.17 447.12 293.49 447.12L293.63 447.25 293.77 447.12 317.96 447.25 322.68 447.25 322.95 447.53 322.95 451.97 322.41 455.66 322.54 457.24 322.41 459.49C322.59 461.31 322.68 463.59 322.68 466.33L322.54 471.45 322.2 471.45 322.2 471.59 317.42 471.32 315.57 471.32 314.41 471.18 312.84 471.32 302.04 471.32 300.87 471.45 299.78 471.32 296.09 471.32 294.79 471.18 294.38 471.32 294.18 471.18 293.35 471.32 291.65 471.18 290.35 471.32 289.25 470.91 289.25 471.18 289.12 471.18 288.5 471.04 287.54 471.32C287.23 471.13 287.07 470.57 287.07 469.61 286.15 471.02 285.7 472.43 285.7 473.85L285.84 473.98C285.24 474.07 284.95 474.23 284.95 474.46L285.84 474.46 285.84 475.01 285.7 475.9 285.97 476.44 285.84 478.7C285.84 478.93 285.49 479.06 284.81 479.11L284.81 479.32 285.84 480.14 285.84 481.98 284.81 482.12 284.81 482.39 285.84 482.39 285.84 483.55C285.84 483.78 286.2 483.96 286.93 484.1L287.07 484.1 286.93 483.96 286.93 483.55 298.35 483.55 298.35 483.96 298.76 483.55 300.74 483.69 300.87 483.55 301.01 483.55 301.63 483.69 302.72 483.55 303.61 483.69 304.02 483.55 305.04 483.69 305.18 483.55 305.32 483.55 305.45 483.69 305.59 483.69 306.27 483.55 309.42 483.69 323.23 483.69 324.12 483.55 324.8 483.69 327.94 483.69 330.2 483.83 330.34 483.69 330.47 483.69 332.05 483.83 333.35 483.83C333.98 483.83 334.3 483.74 334.3 483.55 334.89 483.74 335.19 483.92 335.19 484.1L335.19 485.95 335.05 487.93 335.19 488.54 335.05 488.54 335.19 488.68 335.19 488.82 335.05 490.12 335.19 490.66 335.05 490.8 335.19 491.21 335.05 494.35 335.19 498.05 335.05 498.8 335.19 499.48 335.05 499.48 335.19 499.89 335.05 500.03 335.19 500.51 335.05 503.72 335.19 505.77 335.05 505.91 335.05 506.04 335.19 506.45 335.05 508.16 331.64 508.16 330.75 508.03 330.61 508.16 328.9 508.03 324.66 508.03 320.49 507.62 312.15 507.75 311.54 507.89 310.85 507.62C310.44 507.8 309.83 507.89 309.01 507.89L305.45 507.89 304.7 507.75 303.88 507.89 295.2 507.89 293.63 508.03 293.08 507.89 292.94 508.03 292.19 507.89 291.37 508.03 291.1 508.03 291.1 507.89 289.39 508.03 287.82 508.03 286.11 507.89 284.4 508.03 282.96 508.03 281.53 507.89 280.85 508.03 276.27 507.89 275.44 508.03 274.28 507.89 273.46 508.03 272.16 507.89 271.27 507.89 267.86 508.03 267.17 507.75 267.31 507 266.9 507C266.9 507.68 266.19 508.03 264.78 508.03L262.05 507.89 262.05 507.62 261.91 505.91 262.18 503.72 262.05 503.58 262.18 502.9 262.18 500.51 262.32 498.46 262.18 497.91 262.32 497.77 262.18 497.36 262.32 493.19 262.32 491.96C262.41 491.32 262.55 490.98 262.73 490.94 262.46 489.89 262.32 487.56 262.32 483.96L262.32 446.16C262.59 443.79 262.8 440.37 262.94 435.91L262.73 435.16 262.94 434.74 262.73 434.2 262.94 434.2C262.52 433.29 262.32 432.51 262.32 431.87L262.32 431.05 262.59 431.05 262.59 431.33 262.73 431.33 262.73 430.78C262.73 430.28 262.59 430.03 262.32 430.03L262.32 429.48 262.46 429.34 262.32 429.21 262.32 428.66 262.73 428.46 262.46 427.64 262.59 426.34 262.32 420.8 262.59 416.97 262.59 416.7 262.46 416.7 262.32 417.66 262.05 417.66 262.05 413.01 262.18 410.14ZM262.46 415.95L262.46 416.22 262.59 416.22C262.91 413.12 263.25 411.57 263.62 411.57 263.94 411.57 264.42 412.98 265.05 415.81L265.05 415.95 265.19 415.95 265.19 415.67C264.6 412.66 264.12 411.16 263.76 411.16L263.62 411.16C263.21 411.16 262.82 412.76 262.46 415.95L262.46 415.95ZM265.33 416.83L265.33 417.38 265.46 417.38 265.46 416.83 265.33 416.83ZM265.46 417.52L265.46 417.93 265.6 418.54 265.74 418.54 265.74 418.41 265.6 417.52 265.46 417.52ZM368.49 409.93L369.04 409.93 369.31 410.2 369.45 410.07 369.66 410.07 373.01 410.2 375.81 410.07 376.22 410.2 376.22 410.48 373.83 410.75 373.83 410.89 374.1 410.89C375.97 410.71 377.34 410.48 378.2 410.2L381.55 410.2 381.69 410.34 381.82 410.2 387.98 410.2 393.51 410.07 395.02 410.2 396.73 410.07 398.98 410.2 400.76 410.07 401.17 410.2 402.47 410.07 404.45 410.2 405.55 410.07 406.37 410.2 407.66 410.07 407.66 410.2 407.8 410.07 407.94 410.07 408.35 410.2 408.62 410.2 408.62 410.07 417.92 410.34C418.15 410.34 418.47 410.52 418.88 410.89 419.01 410.52 419.15 410.34 419.29 410.34L420.04 410.34C421.86 410.34 423.48 411.05 424.89 412.46L424.89 412.19C425.71 412.19 426.9 413.3 428.45 415.54 428.81 415.54 429.31 417.36 429.95 421L429.81 421 430.36 424.97 430.22 425.79 430.36 426.34 430.22 428.59 430.22 431.94 430.36 433.24 430.22 433.38 430.22 433.79 430.36 433.79 430.22 435.5 430.22 440.56 430.09 441.1 430.22 441.65 430.22 443.22 430.09 443.77 430.22 444.18C430.18 445.77 430.04 446.57 429.81 446.57L428.45 446.57 425.78 446.43 423.52 446.57C417.78 446.48 413.84 446.3 411.7 446.02L411.56 446.16 411.42 446.16 409.65 446.02 409.65 446.3 409.03 446.3 409.03 446.02 408.62 445.68 407.94 445.89 407.8 445.89C407.16 445.89 406.84 445.55 406.84 444.86L406.84 437.14C406.84 436.59 407.03 436.32 407.39 436.32L407.39 436.18C407.39 436 407.21 435.91 406.84 435.91L406.84 435.22 408.07 434.88 408.07 434.74 407.94 434.74 407.12 434.88 406.98 434.88 407.12 434.33 406.84 433.65 406.71 433.65 406.23 434.06 405.96 434.06 405.96 433.92 405 434.06 400.35 434.06 400.21 433.92 400.08 434.06 398.98 434.06 394.47 433.92 394.47 433.51 394.2 433.51C394.2 433.79 394.11 433.92 393.92 433.92L385.17 433.92 384.9 433.65 384.9 432.83 385.04 432.22 384.9 431.67C384.63 431.67 384.49 432.28 384.49 433.51L384.49 433.92 383.12 433.92 382.1 433.65C381.82 434.11 381.55 434.33 381.28 434.33L381.41 435.02 381.41 436.18 381.55 437.55 381.41 437.55 381.55 437.68 381.55 437.89 381.41 438.3 381.55 438.71 381.41 439.8 381.55 442.61C381 447.16 380.73 452.5 380.73 458.6L380.59 459.63 381 459.35 381.14 459.35 381.14 460.72 380.87 460.72 380.73 462.84 380.73 463.52 380.87 469.13 381 468.99 381.28 468.99 381.28 470.02 380.87 470.02C381.14 472.84 381.28 475.3 381.28 477.4L381.28 481.23 381.14 481.78 381.28 482.32 381.28 482.46 381.14 483.76 381.28 484.17 381.96 484.03 382.37 484.31 382.51 484.17 385.79 484.17C385.79 484.53 385.88 484.72 386.06 484.72L386.2 484.17 405.13 484.44 405.27 484.58 405.41 484.58 406.71 484.31 406.71 484.17 406.37 484.17 406.37 483.9C406.64 483.44 407.03 483.21 407.53 483.21L408.21 483.21 408.21 482.87C407.66 482.82 407.39 482.73 407.39 482.6L407.25 482.73 406.71 482.73C406.3 482.6 406.09 482.28 406.09 481.78L406.09 480.82 406.84 476.44 406.09 476.44 406.09 473.64C406.59 473.64 406.84 473.55 406.84 473.37L406.84 473.09 406.09 472.96 406.09 472.41C406.09 472.18 406.23 472.07 406.5 472.07L406.5 471.93 406.37 471.8 406.5 471.66 406.5 471.52 405.96 470.98C405.68 470.98 405.32 471.16 404.86 471.52L404.59 471.52 404.59 471.39 404.45 471.52 404.31 471.52C402.63 471.48 401.79 471.39 401.79 471.25L401.79 470.98 401.65 470.98 401.65 471.39 400.49 471.39C400.26 471.39 400.12 471.2 400.08 470.84L399.94 470.7 399.8 470.7 400.08 471.39 394.2 471.39 393.79 470.98 393.92 470.02 393.92 467.63 394.06 467.08 393.79 465.64 393.92 465.23 393.79 463.66 393.79 461.54 394.06 461.13 394.06 460.99 393.79 460.58 393.79 460.04C393.79 459.81 394.29 459.58 395.29 459.35L395.97 459.49 397.14 459.49 397.82 459.35 403.84 460.04 403.84 459.76 403.43 459.76 403.43 459.49 428.99 459.49C429.81 459.49 430.22 459.9 430.22 460.72L430.09 465.1 430.09 469.4 429.95 473.5 430.09 473.64 429.95 475.08 429.95 494.42 429.81 498.18C429.63 498.18 429.45 498.48 429.27 499.07L429.81 499.21C428.49 502.67 427.47 504.54 426.74 504.81L426.6 504.81 426.6 504.68 428.04 499.07 427.83 498.93 427.69 498.93 425.78 505.63C423.73 507.32 421.66 508.16 419.56 508.16L418.74 508.16C418.74 507.75 418.56 507.43 418.19 507.21 417.92 507.21 417.78 507.52 417.78 508.16L411.83 508.16 411.29 508.03 411.15 508.16 411.01 508.16 387.7 507.89 387.29 507.75 386.61 507.89 386.2 507.89 386.06 507.75 385.93 507.89 377.18 507.75 370.07 507.75 369.79 508.03 369.45 508.03 369.45 507.89 368.08 508.03 367.95 508.03C366.99 508.03 365.49 507.55 363.44 506.59 361.98 505.68 360.91 504.7 360.22 503.65 360.63 503.51 360.95 503.24 361.18 502.83L361.18 502.69C360.72 503.15 360.31 503.38 359.95 503.38L359.81 503.38C358.95 501.92 358.51 500.99 358.51 500.57L358.65 499.75C358.51 498.07 358.29 497.23 357.97 497.23 357.74 497.23 357.6 496.91 357.56 496.27L357.97 496.27 357.97 496.06 357.56 495.52 357.56 475.35 357.69 472.68 357.56 472.55 357.69 471.93 357.83 461.54 357.83 456.55 357.97 454.98 357.83 454.84 357.97 454.16 357.97 449.1C357.97 445.73 358.1 444.04 358.38 444.04L358.24 443.91 358.24 443.77 358.38 441.79 357.97 441.79 358.1 440.35 358.1 438.85 358.79 430.44 358.51 430.44 358.24 433.24 358.24 433.51 357.83 433.51 357.83 425.11 358.24 425.11C358.1 423.88 357.97 423.26 357.83 423.26L357.97 422.71 357.83 421.41C357.83 418.59 359.33 415.74 362.34 412.87 364.89 410.91 366.94 409.93 368.49 409.93L368.49 409.93ZM370.48 410.89L370.48 411.02 371.57 411.16 373.55 410.89 373.55 410.75 373.14 410.75 370.48 410.89ZM366.99 411.16L369.66 411.16 369.66 411.02 367.95 410.89 367.26 410.89 366.99 411.16ZM363.44 414.03L363.44 414.58 363.71 414.58 363.71 414.31 363.44 414.03ZM403.97 459.9L403.97 460.04 404.45 460.17 404.59 460.04 404.72 460.04 404.86 460.17 405.13 460.17 405.13 460.04 404.45 459.9 403.97 459.9ZM506.73 409.52L507.34 409.66 507.34 409.52 507.48 409.66 510.9 409.66 512.95 409.79 514.66 409.52 514.66 409.79 516.09 409.52C516.55 409.52 516.78 409.7 516.78 410.07 517.33 410.39 519.01 410.82 521.84 411.37 522.89 411.91 523.41 412.55 523.41 413.28 524.14 414.88 524.71 415.83 525.12 416.15L525.46 416.15 525.6 416.01C526.14 416.01 526.42 417.29 526.42 419.84L526.55 419.98C526.55 420.57 526.76 420.87 527.17 420.87L527.17 421.41 527.03 421.55 527.17 421.76 527.17 421.89 527.31 423.47 527.17 428.32 527.17 439.26 527.03 440.42 527.17 441.51 527.17 445.41 527.03 446.84 527.17 448.28 527.03 449.99 527.17 450.88 527.03 454.77 527.17 455.87 527.03 458.19 527.03 462.5 527.31 495.11 527.44 497.09C526.8 500.37 525.6 502.92 523.82 504.74 521.86 506.66 518.76 507.62 514.52 507.62L510.08 507.75 498.32 507.41 490.53 507.41 486.36 507.62 486.22 507.41 484.79 507.62C471.52 507.66 464.87 507.75 464.83 507.89L464.83 508.16 464.28 508.16C461.63 508.16 458.9 506.64 456.08 503.58 454.53 501.76 453.75 498.98 453.75 495.24L453.61 490.66 453.75 489.64C453.48 489.18 453.34 484.15 453.34 474.53L453.48 434.95 453.34 429.75 453.48 429.75 453.34 429.62 453.48 428.93 453.2 424.01 453.2 422.17C453.2 416.61 455.6 412.82 460.38 410.82L460.66 410.82 461.13 411.09 462.98 410.96 462.98 410.68 462.09 410.68 462.09 410.41C463.28 410 464.67 409.79 466.26 409.79L467.42 409.79 467.42 409.93 467.29 410.07 467.29 410.27 467.42 410.27 467.97 410.07 468.58 410.27C469.72 409.95 471 409.79 472.41 409.79L486.5 409.79 488.27 409.66 488.27 409.79 488.41 409.66 489.98 409.66 490.12 409.79 490.25 409.66 494.15 409.66 494.29 409.79 494.42 409.66 505.91 409.66 506.73 409.52ZM464.83 410.55L464.83 410.68 465.44 410.68 465.44 410.41 465.24 410.41 464.83 410.55ZM463.25 410.68L463.25 410.82 463.66 410.82 464.55 410.68 464.55 410.55 464.28 410.55 463.25 410.68ZM486.5 434.2L485.81 434.06 485.33 434.2 484.51 434.06 484.38 434.2 484.24 434.2 484.1 434.06 483.9 434.06 483.76 434.2 482.8 434.06 482.05 434.06 480.34 434.2 480.34 434.06 479.93 434.2 477.61 434.06 477.61 435.63 477.47 436.25 477.75 436.93 477.61 440.56 477.88 446.84 477.75 446.84 477.88 446.98 477.88 452.86 477.75 453 477.88 453.2C477.52 456.07 477.33 458.6 477.33 460.79L477.33 463.05 477.88 475.28 477.75 475.42 477.75 475.56 477.88 476.44 477.88 478.7 477.75 478.91 477.88 479.04 477.88 479.32 477.75 480.34 477.88 481.57C477.88 482.44 477.79 482.87 477.61 482.87L477.75 483.01 477.75 483.62 477.61 484.65 480.62 484.31 481.03 484.44 481.23 484.31 481.64 484.44 482.05 486.63 482.19 486.63 482.19 484.44 493.81 484.17 494.56 484.03 495.25 484.17 499 484.03 499.76 484.17 501.19 484.03 502.29 484.03 502.9 484.44 503.04 484.44 503.17 484.03 502.76 482.32 503.04 480.89 502.9 478.02 502.9 477.88 503.17 477.88 503.31 479.59 503.45 479.59 503.45 479.04C503.08 474.44 502.9 471.13 502.9 469.13L502.9 460.93 503.04 460.79 502.9 460.65 503.04 459.9 502.9 456.48 502.9 452.72 503.04 452.18 502.9 452.04 503.04 448.9 503.04 441.65 503.31 441.65 503.72 444.86 503.86 444.86 503.86 444.38C503.68 441.24 503.36 439.67 502.9 439.67L503.04 437.21 503.04 435.5 503.45 434.95 503.45 434.81 503.17 434.81 503.17 434.33C503.17 434.06 503.52 433.92 504.2 433.92L504.2 433.79C503.47 433.79 502.99 433.7 502.76 433.51 502.76 433.83 502.13 434.02 500.85 434.06L496.68 434.06C496.68 433.61 496.59 433.38 496.41 433.38L486.5 434.2ZM503.86 445L503.86 445.55 504.06 445.55 504.06 445 503.86 445ZM503.86 446.16L503.86 446.3 504.2 448.9 504.34 448.9 504.34 447.6 504.2 446.16 503.86 446.16ZM504.34 449.03L504.34 449.72 504.47 449.72 504.47 449.03 504.34 449.03ZM504.34 449.99L504.34 450.6 504.47 451.01 504.61 451.01 504.61 450.88 504.47 449.99 504.34 449.99ZM504.61 452.45L504.47 452.86 504.61 453 504.75 453 504.75 452.45 504.61 452.45ZM503.45 479.86L503.45 480.48 503.58 480.48 503.58 479.86 503.45 479.86Z" id="STEGO"/></g></g></svg>