<?xml version="1.0" encoding="utf-8"?>
<!-- Generator: Adobe Illustrator 19.1.0, SVG Export Plug-In . SVG Version: 6.00 Build 0)  -->
<!DOCTYPE svg PUBLIC "-//W3C//DTD SVG 1.1//EN" "http://www.w3.org/Graphics/SVG/1.1/DTD/svg11.dtd">
<svg version="1.1" id="Layer_1" xmlns="http://www.w3.org/2000/svg" xmlns:xlink="http://www.w3.org/1999/xlink" x="0px" y="0px"
	 viewBox="0 0 960 560" enable-background="new 0 0 960 560" xml:space="preserve">
<g>
	<defs>
		<path id="SVGID_1_" d="M610.8,324.4c0,0-38-0.3-84.3-29.7c-40.4-25.6-67.4-138-160.5-170.1c-93.1-32.1-170.9,84.3-201.4,84.3
			c-30.5,0-25.7-16.9-51.4-16.9c-38.5,0-43.3,16.9-33.7,21.7c14.4,7.2,28.3-5.4,49.7,8.8c26.2,22.7,61.8,34.5,77.9,42.5
			c16.1,8,63.4,19.2,82.7,19.2c19.2,0,105.1-21.7,126-51.4c21.7,12.8,54.8,53.8,79.4,71.4C532.2,330.8,610.8,324.3,610.8,324.4
			L610.8,324.4z"/>
	</defs>
	<clipPath id="SVGID_2_">
		<use xlink:href="#SVGID_1_"  overflow="visible"/>
	</clipPath>
	<g clip-path="url(#SVGID_2_)">
		<defs>
			<rect id="SVGID_3_" x="43" y="-31.6" width="600" height="600"/>
		</defs>
		<clipPath id="SVGID_4_">
			<use xlink:href="#SVGID_3_"  overflow="visible"/>
		</clipPath>
		<rect x="70.3" y="113.9" clip-path="url(#SVGID_4_)" width="545.5" height="216.1"/>
	</g>
</g>
<g>
	<defs>
		<path id="SVGID_5_" d="M240,269.8c0,0,1.6,66.6-4.8,72.2c-6.4,5.6-21.7,8-25.7-0.8c-4-8.8,11.2-81.1,11.2-81.1L240,269.8z"/>
	</defs>
	<clipPath id="SVGID_6_">
		<use xlink:href="#SVGID_5_"  overflow="visible"/>
	</clipPath>
	<g clip-path="url(#SVGID_6_)">
		<defs>
			<rect id="SVGID_7_" x="43" y="-31.6" width="600" height="600"/>
		</defs>
		<clipPath id="SVGID_8_">
			<use xlink:href="#SVGID_7_"  overflow="visible"/>
		</clipPath>
		<rect x="203.9" y="255.2" clip-path="url(#SVGID_8_)" width="41.4" height="96.9"/>
	</g>
</g>
<g>
	<defs>
		<path id="SVGID_9_" d="M172.6,245.7c0,0,16.1,21.7,14.4,35.3c-1.6,13.6-18.8,24.3-18.5,53c0.1,9.8,18,8.5,23.3,2.4
			c4.1-4.7-1.6-15.3,1.6-22.5c3.2-7.2,26.5-28.1,26.5-28.1l5.6-31.3L172.6,245.7z"/>
	</defs>
	<clipPath id="SVGID_10_">
		<use xlink:href="#SVGID_9_"  overflow="visible"/>
	</clipPath>
	<g clip-path="url(#SVGID_10_)">
		<defs>
			<rect id="SVGID_11_" x="43" y="-31.6" width="600" height="600"/>
		</defs>
		<clipPath id="SVGID_12_">
			<use xlink:href="#SVGID_11_"  overflow="visible"/>
		</clipPath>
		<rect x="163.6" y="240.7" clip-path="url(#SVGID_12_)" width="67" height="105.4"/>
	</g>
</g>
<g>
	<defs>
		<path id="SVGID_13_" d="M331.5,271.4c0,0,38.5,37.7,37.7,49.8c-0.8,12-8.4,13-5.6,20.1c2.4,6,24.9,5.6,31.3,0
			c6.4-5.6-8.8-79.4-20.1-85.1C363.6,250.5,331.5,271.4,331.5,271.4L331.5,271.4z"/>
	</defs>
	<clipPath id="SVGID_14_">
		<use xlink:href="#SVGID_13_"  overflow="visible"/>
	</clipPath>
	<g clip-path="url(#SVGID_14_)">
		<defs>
			<rect id="SVGID_15_" x="43" y="-31.6" width="600" height="600"/>
		</defs>
		<clipPath id="SVGID_16_">
			<use xlink:href="#SVGID_15_"  overflow="visible"/>
		</clipPath>
		<rect x="326.5" y="250.2" clip-path="url(#SVGID_16_)" width="74.9" height="100.4"/>
	</g>
</g>
<g>
	<defs>
		<path id="SVGID_17_" d="M386.9,249.7c0,0,32.9,26.5,38.5,38.5c5.6,12,16.1,28.1,12.8,34.5c-3.2,6.4-16.9,21.7-24.9,14.4
			c-8-7.2-1.6-11.2-2.4-20.1c-0.8-8.8-36.9-28.9-36.9-28.9l-8-32.1L386.9,249.7z"/>
	</defs>
	<clipPath id="SVGID_18_">
		<use xlink:href="#SVGID_17_"  overflow="visible"/>
	</clipPath>
	<g clip-path="url(#SVGID_18_)">
		<defs>
			<rect id="SVGID_19_" x="43" y="-31.6" width="600" height="600"/>
		</defs>
		<clipPath id="SVGID_20_">
			<use xlink:href="#SVGID_19_"  overflow="visible"/>
		</clipPath>
		<rect x="361" y="244.7" clip-path="url(#SVGID_20_)" width="82.9" height="99.4"/>
	</g>
</g>
<g>
	<defs>
		<path id="SVGID_21_" d="M587.1,322.7c2.7-6.8,9.2-14.3,21-22.7c-9.5,3.3-19.2,5.4-27.2,15.9c1.5-9.6,4.6-19.8,13.6-32.4
			c-14.8,10.1-17.4,21.9-22.1,33.5L587.1,322.7z"/>
	</defs>
	<clipPath id="SVGID_22_">
		<use xlink:href="#SVGID_21_"  overflow="visible"/>
	</clipPath>
	<g clip-path="url(#SVGID_22_)">
		<defs>
			<rect id="SVGID_23_" x="43" y="-31.6" width="600" height="600"/>
		</defs>
		<clipPath id="SVGID_24_">
			<use xlink:href="#SVGID_23_"  overflow="visible"/>
		</clipPath>
		<rect x="567.3" y="278.5" clip-path="url(#SVGID_24_)" width="45.8" height="49.1"/>
	</g>
</g>
<g>
	<defs>
		<path id="SVGID_25_" d="M561.5,314.7c8.2-15.3,21.4-27.3,34.1-39.7c-13.3,9.1-28.4,15.1-37.4,31.2c-3.6-9.9-6.4-23.4-8.5-40.8
			c-0.8,18-3.4,44.3,0,44.3L561.5,314.7z"/>
	</defs>
	<clipPath id="SVGID_26_">
		<use xlink:href="#SVGID_25_"  overflow="visible"/>
	</clipPath>
	<g clip-path="url(#SVGID_26_)">
		<defs>
			<rect id="SVGID_27_" x="43" y="-31.6" width="600" height="600"/>
		</defs>
		<clipPath id="SVGID_28_">
			<use xlink:href="#SVGID_27_"  overflow="visible"/>
		</clipPath>
		<rect x="542.9" y="260.3" clip-path="url(#SVGID_28_)" width="57.7" height="59.4"/>
	</g>
</g>
<g>
	<defs>
		<path id="SVGID_29_" d="M536,302.2c0,0,6.8-0.6,8.5-4.5c1.7-4,0-17.6,0-17.6s-10.2,3.4-11.9,6.8c-1.7,3.4-1.7,11.9-1.7,11.9
			L536,302.2z"/>
	</defs>
	<clipPath id="SVGID_30_">
		<use xlink:href="#SVGID_29_"  overflow="visible"/>
	</clipPath>
	<g clip-path="url(#SVGID_30_)">
		<defs>
			<rect id="SVGID_31_" x="43" y="-31.6" width="600" height="600"/>
		</defs>
		<clipPath id="SVGID_32_">
			<use xlink:href="#SVGID_31_"  overflow="visible"/>
		</clipPath>
		<rect x="525.9" y="275.1" clip-path="url(#SVGID_32_)" width="24.4" height="32.1"/>
	</g>
</g>
<g>
	<defs>
		<path id="SVGID_33_" d="M514.5,286.7c0,0,0.6-6.4,3-9.4c2.4-3,12-4.8,12-4.8s3.2,8.6,1.4,12.4c-1.8,3.8-9.8,7.8-9.8,7.8
			L514.5,286.7z"/>
	</defs>
	<clipPath id="SVGID_34_">
		<use xlink:href="#SVGID_33_"  overflow="visible"/>
	</clipPath>
	<g clip-path="url(#SVGID_34_)">
		<defs>
			<rect id="SVGID_35_" x="43" y="-31.6" width="600" height="600"/>
		</defs>
		<clipPath id="SVGID_36_">
			<use xlink:href="#SVGID_35_"  overflow="visible"/>
		</clipPath>
		<rect x="509.5" y="267.5" clip-path="url(#SVGID_36_)" width="27" height="30.2"/>
	</g>
</g>
<g>
	<defs>
		<path id="SVGID_37_" d="M495,260.4c0,0,5-5.7,10-9.1s20.4-1.4,20.4-1.4s0.7,14.5-3.9,19.3c-4.5,4.8-18.5,7-18.5,7L495,260.4z"/>
	</defs>
	<clipPath id="SVGID_38_">
		<use xlink:href="#SVGID_37_"  overflow="visible"/>
	</clipPath>
	<g clip-path="url(#SVGID_38_)">
		<defs>
			<rect id="SVGID_39_" x="43" y="-31.6" width="600" height="600"/>
		</defs>
		<clipPath id="SVGID_40_">
			<use xlink:href="#SVGID_39_"  overflow="visible"/>
		</clipPath>
		<rect x="490" y="244.3" clip-path="url(#SVGID_40_)" width="40.4" height="36.9"/>
	</g>
</g>
<g>
	<defs>
		<path id="SVGID_41_" d="M478.4,236.4c0,0,1.7-12.8,10.5-15.6c8.8-2.8,27.8,0.3,27.8,0.3s0.3,17.9-4,22.4
			c-4.2,4.5-24.7,5.7-24.7,5.7L478.4,236.4z"/>
	</defs>
	<clipPath id="SVGID_42_">
		<use xlink:href="#SVGID_41_"  overflow="visible"/>
	</clipPath>
	<g clip-path="url(#SVGID_42_)">
		<defs>
			<rect id="SVGID_43_" x="43" y="-31.6" width="600" height="600"/>
		</defs>
		<clipPath id="SVGID_44_">
			<use xlink:href="#SVGID_43_"  overflow="visible"/>
		</clipPath>
		<rect x="473.4" y="214.6" clip-path="url(#SVGID_44_)" width="48.3" height="39.6"/>
	</g>
</g>
<g>
	<defs>
		<path id="SVGID_45_" d="M459.7,209.4c0,0,3.2-10.7,10.2-14.8c6.2-3.5,30.7-2.3,30.7-2.3s-5.6,21.3-13.3,25.5
			c-6.9,3.8-15.6,4.5-15.6,4.5L459.7,209.4z"/>
	</defs>
	<clipPath id="SVGID_46_">
		<use xlink:href="#SVGID_45_"  overflow="visible"/>
	</clipPath>
	<g clip-path="url(#SVGID_46_)">
		<defs>
			<rect id="SVGID_47_" x="43" y="-31.6" width="600" height="600"/>
		</defs>
		<clipPath id="SVGID_48_">
			<use xlink:href="#SVGID_47_"  overflow="visible"/>
		</clipPath>
		<rect x="454.7" y="187.2" clip-path="url(#SVGID_48_)" width="50.9" height="40.3"/>
	</g>
</g>
<g>
	<defs>
		<path id="SVGID_49_" d="M431.3,175.7c0,0-3.6-15.1,6.2-21.9c14.5-9.9,68.7-6.8,68.7-6.8s-25.9,42.5-32.6,44
			c-5.1,1.2-19.3,5.1-19.3,5.1L431.3,175.7z"/>
	</defs>
	<clipPath id="SVGID_50_">
		<use xlink:href="#SVGID_49_"  overflow="visible"/>
	</clipPath>
	<g clip-path="url(#SVGID_50_)">
		<defs>
			<rect id="SVGID_51_" x="43" y="-31.6" width="600" height="600"/>
		</defs>
		<clipPath id="SVGID_52_">
			<use xlink:href="#SVGID_51_"  overflow="visible"/>
		</clipPath>
		<rect x="425.6" y="141.6" clip-path="url(#SVGID_52_)" width="85.5" height="59.6"/>
	</g>
</g>
<g>
	<defs>
		<path id="SVGID_53_" d="M390.1,141.9c0,0-3.4-19.3,1.1-27.8c4.5-8.5,45.7-39.7,65.8-29.2c-13.1,25-4.5,55.3-11.6,62.1
			c-7.1,6.8-21.3,5.1-24.4,10.2C418,162.4,390.2,142,390.1,141.9L390.1,141.9z"/>
	</defs>
	<clipPath id="SVGID_54_">
		<use xlink:href="#SVGID_53_"  overflow="visible"/>
	</clipPath>
	<g clip-path="url(#SVGID_54_)">
		<defs>
			<rect id="SVGID_55_" x="43" y="-31.6" width="600" height="600"/>
		</defs>
		<clipPath id="SVGID_56_">
			<use xlink:href="#SVGID_55_"  overflow="visible"/>
		</clipPath>
		<rect x="383.9" y="77.8" clip-path="url(#SVGID_56_)" width="78.2" height="85.3"/>
	</g>
</g>
<g>
	<defs>
		<path id="SVGID_57_" d="M320.2,121c0,0-6.8-7.9-3.3-21.1c4.4-16.6,31.4-23.7,51.4-55c0,0,26.7,44.3,24.2,56.8
			c-2.6,12.6-12.2,17-13.6,27.2C377.3,139.2,320.1,121,320.2,121L320.2,121z"/>
	</defs>
	<clipPath id="SVGID_58_">
		<use xlink:href="#SVGID_57_"  overflow="visible"/>
	</clipPath>
	<g clip-path="url(#SVGID_58_)">
		<defs>
			<rect id="SVGID_59_" x="43" y="-31.6" width="600" height="600"/>
		</defs>
		<clipPath id="SVGID_60_">
			<use xlink:href="#SVGID_59_"  overflow="visible"/>
		</clipPath>
		<rect x="310.9" y="39.9" clip-path="url(#SVGID_60_)" width="86.7" height="97.2"/>
	</g>
</g>
<g>
	<defs>
		<path id="SVGID_61_" d="M283.1,132.1c0,0-21.6-6.2-23-20.3C257,80.3,281,42.5,281,42.5c0.3,2.8,33.2,38.3,34.8,42.7
			c3.9,10.5-8.7,40.3-8.7,40.3L283.1,132.1z"/>
	</defs>
	<clipPath id="SVGID_62_">
		<use xlink:href="#SVGID_61_"  overflow="visible"/>
	</clipPath>
	<g clip-path="url(#SVGID_62_)">
		<defs>
			<rect id="SVGID_63_" x="43" y="-31.6" width="600" height="600"/>
		</defs>
		<clipPath id="SVGID_64_">
			<use xlink:href="#SVGID_63_"  overflow="visible"/>
		</clipPath>
		<rect x="254.8" y="37.5" clip-path="url(#SVGID_64_)" width="66.7" height="99.6"/>
	</g>
</g>
<g>
	<defs>
		<path id="SVGID_65_" d="M244,155.5c0,0-18.3-4.9-22.7-11.3c-5.1-7.4-5.4-36.6-7.7-48.8c8.2,6,35.7,18.7,42,23.6
			c3.1,4.5,5.7,22.7,7.4,25.3C264.7,146.7,244,155.5,244,155.5L244,155.5z"/>
	</defs>
	<clipPath id="SVGID_66_">
		<use xlink:href="#SVGID_65_"  overflow="visible"/>
	</clipPath>
	<g clip-path="url(#SVGID_66_)">
		<defs>
			<rect id="SVGID_67_" x="43" y="-31.6" width="600" height="600"/>
		</defs>
		<clipPath id="SVGID_68_">
			<use xlink:href="#SVGID_67_"  overflow="visible"/>
		</clipPath>
		<rect x="208.7" y="90.4" clip-path="url(#SVGID_68_)" width="59.5" height="70.2"/>
	</g>
</g>
<g>
	<defs>
		<path id="SVGID_69_" d="M214.5,179.1c0,0-14.5-6.8-19-11.9c-4.5-5.1-8.8-36.3-8.8-36.3s30.1,13.1,34.3,17.9
			c4.2,4.8,6.8,18.7,6.8,18.7L214.5,179.1z"/>
	</defs>
	<clipPath id="SVGID_70_">
		<use xlink:href="#SVGID_69_"  overflow="visible"/>
	</clipPath>
	<g clip-path="url(#SVGID_70_)">
		<defs>
			<rect id="SVGID_71_" x="43" y="-31.6" width="600" height="600"/>
		</defs>
		<clipPath id="SVGID_72_">
			<use xlink:href="#SVGID_71_"  overflow="visible"/>
		</clipPath>
		<rect x="181.7" y="125.9" clip-path="url(#SVGID_72_)" width="51.2" height="58.2"/>
	</g>
</g>
<g>
	<defs>
		<path id="SVGID_73_" d="M192.9,193.6l9.6-6.8c0,0,0.3-3.1-3.1-9.4c-3.4-6.2-25-12.8-25-12.8s2.8,17.9,6.5,21
			C184.7,188.7,192.9,193.5,192.9,193.6L192.9,193.6z"/>
	</defs>
	<clipPath id="SVGID_74_">
		<use xlink:href="#SVGID_73_"  overflow="visible"/>
	</clipPath>
	<g clip-path="url(#SVGID_74_)">
		<defs>
			<rect id="SVGID_75_" x="43" y="-31.6" width="600" height="600"/>
		</defs>
		<clipPath id="SVGID_76_">
			<use xlink:href="#SVGID_75_"  overflow="visible"/>
		</clipPath>
		<rect x="169.5" y="159.6" clip-path="url(#SVGID_76_)" width="38.1" height="39"/>
	</g>
</g>
<g>
	<defs>
		<path id="SVGID_77_" d="M175.3,206.7c0,0-9.7-3.4-12.6-8.7c-3-5.4-1.4-21.2-1.4-21.2s15.2,5.8,17.9,10.3
			c2.8,4.5,3.6,15.4,3.6,15.4L175.3,206.7z"/>
	</defs>
	<clipPath id="SVGID_78_">
		<use xlink:href="#SVGID_77_"  overflow="visible"/>
	</clipPath>
	<g clip-path="url(#SVGID_78_)">
		<defs>
			<rect id="SVGID_79_" x="43" y="-31.6" width="600" height="600"/>
		</defs>
		<clipPath id="SVGID_80_">
			<use xlink:href="#SVGID_79_"  overflow="visible"/>
		</clipPath>
		<rect x="155.8" y="171.7" clip-path="url(#SVGID_80_)" width="31.9" height="39.9"/>
	</g>
</g>
<g>
	<defs>
		<path id="SVGID_81_" d="M152.7,209.2c0,0-1.7-9.1-2-11.9c-0.3-2.8,3.1-9.6,3.1-9.6s5.4,5.7,5.4,11.1c0,5.4-0.8,13.1-0.8,13.1
			L152.7,209.2z"/>
	</defs>
	<clipPath id="SVGID_82_">
		<use xlink:href="#SVGID_81_"  overflow="visible"/>
	</clipPath>
	<g clip-path="url(#SVGID_82_)">
		<defs>
			<rect id="SVGID_83_" x="43" y="-31.6" width="600" height="600"/>
		</defs>
		<clipPath id="SVGID_84_">
			<use xlink:href="#SVGID_83_"  overflow="visible"/>
		</clipPath>
		<rect x="145.7" y="182.6" clip-path="url(#SVGID_84_)" width="18.5" height="34.1"/>
	</g>
</g>
<g>
	<defs>
		<path id="SVGID_85_" d="M143.8,205.2c0,0-1.1-5.7-1.4-9.4c-0.3-3.7,2.5-10.5,2.5-10.5s3.7,7.9,3.1,11.1
			c-0.6,3.1-1.4,10.5-1.4,10.5L143.8,205.2z"/>
	</defs>
	<clipPath id="SVGID_86_">
		<use xlink:href="#SVGID_85_"  overflow="visible"/>
	</clipPath>
	<g clip-path="url(#SVGID_86_)">
		<defs>
			<rect id="SVGID_87_" x="43" y="-31.6" width="600" height="600"/>
		</defs>
		<clipPath id="SVGID_88_">
			<use xlink:href="#SVGID_87_"  overflow="visible"/>
		</clipPath>
		<rect x="137.4" y="180.3" clip-path="url(#SVGID_88_)" width="15.7" height="31.6"/>
	</g>
</g>
<g>
	<defs>
		<path id="SVGID_89_" d="M135,199.2c0,0-0.3-3.7,0.3-6.8c0.6-3.1,2.9-6,2.9-6s2.3,4.2,2,7.1c-0.3,2.8-2.3,7.6-2.3,7.6L135,199.2z"
			/>
	</defs>
	<clipPath id="SVGID_90_">
		<use xlink:href="#SVGID_89_"  overflow="visible"/>
	</clipPath>
	<g clip-path="url(#SVGID_90_)">
		<defs>
			<rect id="SVGID_91_" x="43" y="-31.6" width="600" height="600"/>
		</defs>
		<clipPath id="SVGID_92_">
			<use xlink:href="#SVGID_91_"  overflow="visible"/>
		</clipPath>
		<rect x="130" y="181.5" clip-path="url(#SVGID_92_)" width="15.2" height="24.8"/>
	</g>
</g>
<g>
	<defs>
		<path id="SVGID_93_" d="M127.1,195.2c0,0-1.1-3-1-5.6c0.2-2.6,2.5-4.9,2.5-4.9s2.7,2.6,2.7,6.1c0,3.5-1.5,5.8-1.5,5.8L127.1,195.2
			z"/>
	</defs>
	<clipPath id="SVGID_94_">
		<use xlink:href="#SVGID_93_"  overflow="visible"/>
	</clipPath>
	<g clip-path="url(#SVGID_94_)">
		<defs>
			<rect id="SVGID_95_" x="43" y="-31.6" width="600" height="600"/>
		</defs>
		<clipPath id="SVGID_96_">
			<use xlink:href="#SVGID_95_"  overflow="visible"/>
		</clipPath>
		<rect x="121.1" y="179.7" clip-path="url(#SVGID_96_)" width="15.2" height="21.9"/>
	</g>
</g>
<g>
	<defs>
		<path id="SVGID_97_" d="M546.5,448.2v0.6h0.1v-0.6H546.5z M547.6,420.8l-0.1,0.4l0.1,0.1h0.1v-0.5H547.6z M547.4,418.3v0.6
			l0.1,0.4h0.1v-0.1l-0.1-0.9H547.4z M547.4,417.4v0.7h0.1v-0.7H547.4z M546.9,414.5v0.1l0.3,2.6h0.1v-1.3l-0.1-1.4H546.9z
			 M546.9,413.3v0.5h0.2v-0.5H546.9z M529.5,402.5l-0.7-0.1l-0.5,0.1l-0.8-0.1l-0.1,0.1h-0.1l-0.1-0.1h-0.2l-0.1,0.1l-1-0.1h-0.8
			l-1.7,0.1v-0.1l-0.4,0.1l-2.3-0.1v1.6l-0.1,0.6l0.3,0.7l-0.1,3.6l0.3,6.3h-0.1l0.1,0.1v5.9l-0.1,0.1l0.1,0.2
			c-0.4,2.9-0.5,5.4-0.5,7.6v2.3l0.5,12.2l-0.1,0.1v0.1l0.1,0.9v2.3l-0.1,0.2l0.1,0.1v0.3l-0.1,1l0.1,1.2c0,0.9-0.1,1.3-0.3,1.3
			l0.1,0.1v0.6l-0.1,1l3-0.3l0.4,0.1l0.2-0.1l0.4,0.1l0.4,2.2h0.1v-2.2l11.6-0.3l0.8-0.1l0.7,0.1l3.8-0.1l0.8,0.1l1.4-0.1h1.1
			l0.6,0.4h0.1l0.1-0.4l-0.4-1.7l0.3-1.4l-0.1-2.9v-0.1h0.3l0.1,1.7h0.1v-0.5c-0.4-4.6-0.5-7.9-0.5-9.9v-8.2l0.1-0.1l-0.1-0.1
			l0.1-0.8l-0.1-3.4v-3.8l0.1-0.5l-0.1-0.1l0.1-3.1V410h0.3l0.4,3.2h0.1v-0.5c-0.2-3.1-0.5-4.7-1-4.7l0.1-2.5v-1.7l0.4-0.5v-0.1
			h-0.3v-0.5c0-0.3,0.3-0.4,1-0.4v-0.1c-0.7,0-1.2-0.1-1.4-0.3c0,0.3-0.6,0.5-1.9,0.5h-4.2c0-0.5-0.1-0.7-0.3-0.7L529.5,402.5z
			 M506.3,379v0.1h0.4l0.9-0.1v-0.1h-0.3L506.3,379z M507.9,378.9v0.1h0.6v-0.3h-0.2L507.9,378.9z M549.8,377.9l0.6,0.1v-0.1
			l0.1,0.1h3.4l2.1,0.1l1.7-0.3v0.3l1.4-0.3c0.5,0,0.7,0.2,0.7,0.5c0.5,0.3,2.2,0.8,5.1,1.3c1,0.5,1.6,1.2,1.6,1.9
			c0.7,1.6,1.3,2.6,1.7,2.9h0.3l0.1-0.1c0.5,0,0.8,1.3,0.8,3.8l0.1,0.1c0,0.6,0.2,0.9,0.6,0.9v0.5l-0.1,0.1l0.1,0.2v0.1l0.1,1.6
			l-0.1,4.9v10.9l-0.1,1.2l0.1,1.1v3.9l-0.1,1.4l0.1,1.4l-0.1,1.7l0.1,0.9l-0.1,3.9l0.1,1.1l-0.1,2.3v4.3l0.3,32.6l0.1,2
			c-0.6,3.3-1.8,5.8-3.6,7.7c-2,1.9-5.1,2.9-9.3,2.9l-4.4,0.1l-11.8-0.3h-7.8l-4.2,0.2l-0.1-0.2l-1.4,0.2c-13.3,0-19.9,0.1-20,0.3
			v0.3h-0.5c-2.6,0-5.4-1.5-8.2-4.6c-1.5-1.8-2.3-4.6-2.3-8.3l-0.1-4.6l0.1-1c-0.3-0.5-0.4-5.5-0.4-15.1l0.1-39.6l-0.1-5.2h0.1
			l-0.1-0.1l0.1-0.7l-0.3-4.9v-1.8c0-5.6,2.4-9.3,7.2-11.3h0.3l0.5,0.3l1.8-0.1V379h-0.9v-0.3c1.2-0.4,2.6-0.6,4.2-0.6h1.2v0.1
			l-0.1,0.1v0.2h0.1l0.5-0.2l0.6,0.2c1.1-0.3,2.4-0.5,3.8-0.5h14.1l1.8-0.1v0.1l0.1-0.1h1.6l0.1,0.1l0.1-0.1h3.9l0.1,0.1l0.1-0.1
			h11.5L549.8,377.9z M447,428.3v0.1l0.5,0.1l0.1-0.1h0.1l0.1,0.1h0.3v-0.1l-0.7-0.1H447z M406.5,382.4v0.5h0.3v-0.3L406.5,382.4z
			 M410,379.5h2.7v-0.1l-1.7-0.1h-0.7L410,379.5z M413.5,379.2v0.1l1.1,0.1l2-0.3v-0.1h-0.4L413.5,379.2z M411.5,378.3h0.5l0.3,0.3
			l0.1-0.1h0.2l3.3,0.1l2.8-0.1l0.4,0.1v0.3l-2.4,0.3v0.1h0.3c1.9-0.2,3.2-0.4,4.1-0.7h3.3l0.1,0.1l0.1-0.1h6.2l5.5-0.1l1.5,0.1
			l1.7-0.1l2.3,0.1l1.8-0.1l0.4,0.1l1.3-0.1l2,0.1l1.1-0.1l0.8,0.1l1.3-0.1v0.1l0.1-0.1h0.1l0.4,0.1h0.3v-0.1l9.3,0.3
			c0.2,0,0.5,0.2,1,0.5c0.1-0.4,0.3-0.5,0.4-0.5h0.8c1.8,0,3.4,0.7,4.9,2.1v-0.3c0.8,0,2,1.1,3.6,3.3c0.4,0,0.9,1.8,1.5,5.5h-0.1
			l0.5,4l-0.1,0.8l0.1,0.5l-0.1,2.3v3.3l0.1,1.3l-0.1,0.1v0.4h0.1l-0.1,1.7v5.1l-0.1,0.5l0.1,0.5v1.6l-0.1,0.5l0.1,0.4
			c0,1.6-0.2,2.4-0.4,2.4h-1.4l-2.7-0.1l-2.3,0.1c-5.7-0.1-9.7-0.3-11.8-0.5l-0.1,0.1h-0.1l-1.8-0.1v0.3h-0.6v-0.3l-0.4-0.3
			l-0.7,0.2h-0.1c-0.6,0-1-0.3-1-1v-7.7c0-0.5,0.2-0.8,0.5-0.8v-0.1c0-0.2-0.2-0.3-0.5-0.3v-0.7l1.2-0.3v-0.1H451l-0.8,0.1H450
			l0.1-0.5l-0.3-0.7h-0.1l-0.5,0.4H449v-0.1l-1,0.1h-4.6l-0.1-0.1l-0.1,0.1H442l-4.5-0.1v-0.4h-0.3c0,0.3-0.1,0.4-0.3,0.4h-8.8
			l-0.3-0.3v-0.8l0.1-0.6l-0.1-0.5c-0.3,0-0.4,0.6-0.4,1.8v0.4h-1.4l-1-0.3c-0.3,0.5-0.5,0.7-0.8,0.7l0.1,0.7v1.2l0.1,1.4h-0.1
			l0.1,0.1v0.2l-0.1,0.4l0.1,0.4l-0.1,1.1l0.1,2.8c-0.5,4.6-0.8,9.9-0.8,16l-0.1,1l0.4-0.3h0.1v1.4h-0.3l-0.1,2.1v0.7l0.1,5.6
			l0.1-0.1h0.3v1h-0.4c0.3,2.8,0.4,5.3,0.4,7.4v3.8l-0.1,0.5l0.1,0.5v0.1l-0.1,1.3l0.1,0.4l0.7-0.1l0.4,0.3l0.1-0.1h3.3
			c0,0.4,0.1,0.5,0.3,0.5l0.1-0.5l18.9,0.3l0.1,0.1h0.1l1.3-0.3v-0.1h-0.3v-0.3c0.3-0.5,0.7-0.7,1.2-0.7h0.7v-0.3
			c-0.5,0-0.8-0.1-0.8-0.3l-0.1,0.1h-0.5c-0.4-0.1-0.6-0.5-0.6-1v-1l0.8-4.4h-0.8V442c0.5,0,0.8-0.1,0.8-0.3v-0.3l-0.8-0.1v-0.5
			c0-0.2,0.1-0.3,0.4-0.3v-0.1l-0.1-0.1l0.1-0.1v-0.1l-0.5-0.5c-0.3,0-0.6,0.2-1.1,0.5h-0.3v-0.1l-0.1,0.1h-0.1
			c-1.7,0-2.5-0.1-2.5-0.3v-0.3h-0.1v0.4h-1.2c-0.2,0-0.4-0.2-0.4-0.5l-0.1-0.1h-0.1l0.3,0.7h-5.9l-0.4-0.4l0.1-1V436l0.1-0.5
			l-0.3-1.4l0.1-0.4l-0.1-1.6v-2.1l0.3-0.4v-0.1l-0.3-0.4v-0.5c0-0.2,0.5-0.5,1.5-0.7l0.7,0.1h1.2l0.7-0.1l6,0.7v-0.3h-0.4v-0.3H472
			c0.8,0,1.2,0.4,1.2,1.2l-0.1,4.4v4.3l-0.1,4.1l0.1,0.1l-0.1,1.4v19.3l-0.1,3.8c-0.2,0-0.4,0.3-0.5,0.9l0.5,0.1
			c-1.3,3.5-2.3,5.3-3.1,5.6h-0.1V473l1.4-5.6l-0.2-0.1h-0.1l-1.9,6.7c-2.1,1.7-4.1,2.5-6.2,2.5h-0.8c0-0.4-0.2-0.7-0.5-1
			c-0.3,0-0.4,0.3-0.4,1h-5.9l-0.5-0.1l-0.1,0.1H454l-23.3-0.3l-0.4-0.1l-0.7,0.1h-0.4l-0.1-0.1l-0.1,0.1l-8.8-0.1h-7.1l-0.3,0.3
			h-0.3v-0.1l-1.4,0.1H411c-1,0-2.5-0.5-4.5-1.4c-1.5-0.9-2.5-1.9-3.2-2.9c0.4-0.1,0.7-0.4,1-0.8V471c-0.5,0.5-0.9,0.7-1.2,0.7h-0.1
			c-0.9-1.5-1.3-2.4-1.3-2.8l0.1-0.8c-0.1-1.7-0.4-2.5-0.7-2.5c-0.2,0-0.4-0.3-0.4-1h0.4v-0.2l-0.4-0.5v-20.2l0.1-2.7l-0.1-0.1
			l0.1-0.6l0.1-10.4v-5l0.1-1.6l-0.1-0.1l0.1-0.7v-5.1c0-3.4,0.1-5.1,0.4-5.1l-0.1-0.1v-0.1l0.1-2H401l0.1-1.4v-1.5l0.7-8.4h-0.3
			l-0.3,2.8v0.3h-0.4v-8.4h0.4c-0.1-1.2-0.3-1.8-0.4-1.8l0.1-0.5l-0.1-1.3c0-2.8,1.5-5.7,4.5-8.5C407.9,379.3,410,378.3,411.5,378.3
			z M308.5,385.9v0.4l0.1,0.6h0.1v-0.1l-0.1-0.9H308.5z M308.4,385.2v0.5h0.1v-0.5H308.4z M305.5,384.3v0.3h0.1
			c0.3-3.1,0.7-4.6,1-4.6c0.3,0,0.8,1.4,1.4,4.2v0.1h0.1V384c-0.6-3-1.1-4.5-1.4-4.5h-0.1C306.2,379.5,305.8,381.1,305.5,384.3z
			 M305.2,378.5h9.6l0.5,0.1l0.4-0.1l1,0.1l1.2-0.1v0.1l0.2-0.1l2.1,0.1h2.9l0.6,0.1l0.5-0.1l0.1,0.1l0.1-0.1h0.5l0.5,0.1l1-0.1h8.7
			l0.1,0.1l0.2-0.1h0.1l15.8-0.1h1.1l2,0.1l1.4-0.1l0.6,0.1l0.5-0.1l0.8,0.1l1.4-0.1h0.1l0.6,0.1l0.1-0.1h0.4v0.1l1.7-0.1h1.7v0.3
			l1.8-0.1l0.4,0.1l1.3-0.3l2.9,0.1h7.7v2.6c-0.6,2-0.9,4.8-0.9,8.3v13l-1.4,0.1h-4.3l-5.9,0.1v-0.1l-0.1,0.1h-0.1
			c-1,0-1.4-0.1-1.4-0.3l-0.4,0.3l-0.8-0.1l-1,0.1c-0.7-0.1-1-0.2-1-0.3l-1.2,0.3l-0.5-0.3l-0.1,0.1h-3.4l-0.1-0.1l-0.1,0.1h-1.7
			l-0.1-0.1l-0.1,0.1H351l-0.8-0.1l-0.8,0.1h-0.8l-0.1-0.1l-0.1,0.1h-2.6l-0.1-0.1l-0.1,0.1h-0.5l-0.1-0.1l-0.1,0.1h-1.2l-0.1-0.1
			l-0.1,0.1h-1.4l-0.1-0.1l-0.1,0.1h-0.1l-3.4-0.3l-2.6,0.1h-5.3c0-0.4-0.1-0.6-0.3-0.6c-0.2,0-0.3,0.2-0.3,0.5l-0.1,0.1H327
			l-0.6,0.5l2.1-0.1h0.5l0.1,1l-0.4,0.1v0.3h0.3v0.3c0,0.2-0.2,0.3-0.6,0.3v0.1c0.4,0,0.6,0.1,0.6,0.4l-0.1,0.5l0.1,0.1h0.1
			l-0.1,5.9v3l0.3,0.7h0.1l0.4-0.3h0.1c0.7,0,1,0.1,1,0.3c1.4-0.2,3.2-0.3,5.5-0.3l0.1,0.1l0.1-0.1l24.2,0.1h4.7l0.3,0.3v4.4
			l-0.5,3.7l0.1,1.6l-0.1,2.3c0.2,1.8,0.3,4.1,0.3,6.8l-0.1,5.1h-0.3v0.1l-4.8-0.3h-1.8l-1.2-0.1l-1.6,0.1h-10.8l-1.2,0.1l-1.1-0.1
			h-3.7l-1.3-0.1l-0.4,0.1l-0.2-0.1l-0.8,0.1l-1.7-0.1l-1.3,0.1l-1.1-0.4v0.3h-0.1l-0.6-0.1l-1,0.3c-0.3-0.2-0.5-0.8-0.5-1.7
			c-0.9,1.4-1.4,2.8-1.4,4.2l0.1,0.1c-0.6,0.1-0.9,0.3-0.9,0.5h0.9v0.5l-0.1,0.9l0.3,0.5l-0.1,2.3c0,0.2-0.3,0.4-1,0.4v0.2l1,0.8
			v1.8l-1,0.1v0.3h1v1.2c0,0.2,0.4,0.4,1.1,0.5h0.1l-0.1-0.1v-0.4h11.4v0.4l0.4-0.4l2,0.1l0.1-0.1h0.1l0.6,0.1l1.1-0.1l0.9,0.1
			l0.4-0.1l1,0.1l0.1-0.1h0.1l0.1,0.1h0.1l0.7-0.1l3.1,0.1h13.8l0.9-0.1l0.7,0.1h3.1l2.3,0.1l0.1-0.1h0.1l1.6,0.1h1.3
			c0.6,0,1-0.1,1-0.3c0.6,0.2,0.9,0.4,0.9,0.5v1.8l-0.1,2l0.1,0.6h-0.1l0.1,0.1v0.1l-0.1,1.3l0.1,0.5l-0.1,0.1l0.1,0.4l-0.1,3.1
			l0.1,3.7l-0.1,0.8l0.1,0.7h-0.1l0.1,0.4l-0.1,0.1l0.1,0.5l-0.1,3.2l0.1,2.1l-0.1,0.1v0.1l0.1,0.4l-0.1,1.7h-3.4l-0.9-0.1l-0.1,0.1
			l-1.7-0.1h-4.2l-4.2-0.4l-8.3,0.1l-0.6,0.1l-0.7-0.3c-0.4,0.2-1,0.3-1.8,0.3h-3.6l-0.8-0.1l-0.8,0.1h-8.7l-1.6,0.1l-0.5-0.1
			l-0.1,0.1l-0.8-0.1l-0.8,0.1h-0.3v-0.1l-1.7,0.1h-1.6l-1.7-0.1l-1.7,0.1H326l-1.4-0.1l-0.7,0.1l-4.6-0.1l-0.8,0.1l-1.2-0.1
			l-0.8,0.1l-1.3-0.1h-0.9l-3.4,0.1l-0.7-0.3l0.1-0.8h-0.4c0,0.7-0.7,1-2.1,1l-2.7-0.1V476l-0.1-1.7l0.3-2.2l-0.1-0.1l0.1-0.7v-2.4
			l0.1-2.1l-0.1-0.5l0.1-0.1l-0.1-0.4l0.1-4.2v-1.2c0.1-0.6,0.2-1,0.4-1c-0.3-1-0.4-3.4-0.4-7v-37.8c0.3-2.4,0.5-5.8,0.6-10.3
			l-0.2-0.8l0.2-0.4l-0.2-0.5h0.2c-0.4-0.9-0.6-1.7-0.6-2.3v-0.8h0.3v0.3h0.1v-0.5c0-0.5-0.1-0.8-0.4-0.8v-0.5l0.1-0.1l-0.1-0.1V397
			l0.4-0.2l-0.3-0.8l0.1-1.3l-0.3-5.5l0.3-3.8V385h-0.1l-0.1,1h-0.3v-4.6L305.2,378.5z M214.8,378.1v0.3l0.1-0.1l0.7,0.1l2.1-0.1
			l24.5,0.1h9.1l2.4,0.1v-0.1l0.1,0.1l1.7-0.1l3.3,0.1l2.5-0.1v0.4h-0.1c-2,0.3-2.9,0.6-2.9,0.9l2.1,0.3c11.3-1,18.4-1.4,21.4-1.4
			l0.3,1l-0.1,3.6v5.9l-0.1,2.3l0.1,0.1v0.1l-0.1,3.7v7.2c0,0.2-0.2,0.4-0.7,0.4h-0.3v-0.1l-1.4,0.1h-1l-3.2-0.3l-4.6,0.1h-0.4
			l-0.1-0.1l-0.1,0.1h-3.6l-1.6-0.1l-0.4,0.1l-2.1-0.1l-0.1,0.1h-0.1l-1.3-0.4l-0.7,0.4l-0.8-0.1l-0.5,0.1l-0.9-0.3h-0.1l-0.4,0.3
			l0.1,0.1v0.5c0,0.2-0.3,0.3-0.8,0.3v0.2c0,0.2,0.3,0.3,0.8,0.3v0.7l-0.3,0.4h0.3v0.3l-0.3,1.2l0.3,0.3v1.4l-0.1,4.9v0.3h0.1
			l-0.1,1.4v6.4l-0.1,0.8l0.1,0.1l-0.1,3.8v31.4l0.1,24.7l0.1,2.1l-0.1,0.1v0.1l0.1,0.5h-0.1l0.1,0.1v12.5l-0.1,0.8l0.1,0.8v0.8
			h-0.1c-2.2-1.8-6.2-5.7-12-11.9c-0.4-0.1-3.6-3.2-9.5-9.2c-1.4-1.4-2.1-2.2-2.1-2.5l0.1-0.5h-0.1c-0.4,0-0.7-0.6-0.9-1.8l0.1-0.7
			v-1l-0.1-0.2c0.2-0.5,0.3-0.8,0.5-0.8l-0.2-6.4v-2.9l0.2-1.4l-0.2-1.2v-2.4l0.2-2.3l-0.2-0.4l0.2-0.1l-0.2-0.7l0.2-0.9l-0.2-1.4
			l0.2-2.9l-0.2-4.1v-0.1l0.2-0.9l-0.2-0.1v-0.1l0.2-0.7l-0.2-2c0.1-4.5,0.3-6.9,0.6-7.4l-0.1-0.1l0.1-1.4v-0.8
			c0-0.2-0.2-0.3-0.6-0.3v-1.2c0-2.1,0.2-3.1,0.3-3.1c-0.2,0-0.3-1.1-0.5-3.3h-0.1c0.2-0.5,0.3-1.3,0.3-2.5V414l0.2-2.3l-0.2-0.1
			v-0.2l0.2-0.4l-0.2-1.1l0.2-1.2l-0.2-0.1v-0.1l0.2-0.1v-0.1l-0.2-0.4l0.5-3.7l-0.1-0.8l0.8-0.1v-0.3c-0.4,0-0.5-0.1-0.5-0.3
			l-0.3-0.3h-0.3l-0.7,0.5l-1.6-0.1l-0.1,0.1h-0.1l-2.4-0.3h-1.3l-4.8,0.1l-4.7-0.1h-0.8l-0.9-0.1l-0.1,0.1l-1-0.1h-2.9l-2.1-0.1
			v-0.1l-0.3-10.5v-12.3c0-0.7,0.1-1.1,0.4-1.2h3.7L214.8,378.1z M126.6,378.1l3.5,0.1h5v0.3l0.8-0.1l0.4,0.1l4.4-0.3h8.1l13.6,0.1
			l0.5-0.1l0.6,0.1l12.3,0.1h4.8l5.3,0.3v21.9l-0.1,0.8l0.1,0.8l-0.1,0.4H177l-0.5-0.1l-0.6,0.1h-0.3l-0.5-0.1l-0.1,0.1h-0.1
			l-1.8-0.1l-1.1,0.1v-0.1l-0.1,0.1l-1.9-0.1l-20,0.1l-0.1,0.1l-0.7-0.1H141l-0.8-0.3l-0.9,0.1l-0.7-0.6c0,0.1-0.4,0.3-1.2,0.6
			l-0.3,1l0.1,2h-0.1l0.1,0.1v0.8l-0.1,0.7c-1.3,0.1-1.9,0.3-1.9,0.5v0.2c1.4,0.2,2.1,0.4,2.1,0.5v4.3l-0.1,0.5l0.1,0.6l-0.3,1.3
			l0.4,1.1h0.1v-0.1l-0.1-0.7l0.1-0.1h0.1l0.8,0.4c0.4-0.3,0.8-0.4,1.2-0.4h15.5l9.2,0.7v-0.1c0-0.2-0.1-0.3-0.4-0.3v-0.3h1.2
			l1.6-0.1l0.4,0.3l0.1-0.1h6.5l0.9,0.1l0.4-0.1c1.5,0,3.6,0.7,6,2c0.1,0.6,0.7,1.2,1.7,1.8c2.1,1.8,3.1,4.6,3.1,8.3h-0.1l0.1,0.1
			v0.6l-0.1,0.1l0.1,0.1v0.8l-0.1,0.9l0.1,0.7v0.2l-0.1,0.1l0.1,0.1l-0.1,1.6l0.1,9v8.8l-0.1,1.3l0.1,0.5l-0.3,3.2l0.1,1.3v1
			l-0.1,0.6l0.1,0.4l-0.1,1.3l0.1,2.9v1.8c0,4-1.7,7.3-5.1,9.8c-1.5,1.1-3.9,1.7-7.5,1.7h-18.4l-2.3-0.1l-0.1,0.1l-1-0.1H141l-2-0.1
			l-0.5,0.1l-1.2-0.3l-0.9,0.3h-2.7l-0.7,0.1c-1.1-0.2-3.1-0.3-6-0.3h-13.4l-0.1,0.1h-0.1l-0.1-0.8l0.1-20.4l-0.1-3l1-0.1h2.3
			l3.9,0.1l2-0.1v0.1l0.5-0.1l3,0.1l0.7-0.1l0.8,0.1l0.1-0.1h0.1l1.8,0.6c0.9-0.2,2-0.3,3.5-0.3h0.5v0.1l-1,0.2v0.3l12.4-0.6h6.3
			l1.3,0.1l0.1-0.1h0.1l3.8,0.1h3.8c0.2,0,0.3,0.3,0.3,0.8h0.3c0-0.6,0.1-0.9,0.3-0.9h1l0.1,0.1h0.1v-0.3h0.1l-0.1-0.1V452l0.3-1.7
			l-0.1-5.1v-1.8l-0.1-2l0.1-0.8l-0.1-0.8l0.1-0.6l-0.7-0.1h-1c0-0.4-0.1-0.5-0.3-0.5c-0.3,0-0.4,0.2-0.5,0.5h-0.3
			c-2.6-0.4-4.7-0.5-6.4-0.5l-0.8,0.1l-0.8-0.1h-2.3l-1.6,0.3v-0.1l-0.1,0.1h-0.1l-3.8,0.3l-0.1-0.1l-0.7,0.1h-4.4l-2.3,0.1
			l-0.1-0.1h-0.1l-1,0.1l-0.5-0.1l-1.4,0.1h-6.2c-4.1,0-6.2-0.4-6.2-1.3c0-0.5-0.6-0.7-1.8-0.8c-1.5,0-3-1.7-4.6-5.1l-0.1-0.5h0.1
			c0.2,0.1,1.2,1.4,2.9,3.9l0.1,0.1h0.1l-3.5-5.2c-0.3-0.6-0.4-1.4-0.4-2.3c0-0.5,0.1-0.7,0.3-0.7l-0.1-0.1v-7.9l0.1-1.4l-0.4-0.1
			V417h0.1l0.1,0.1h0.1l0.1-10.3v-3.1c0-0.7-0.2-1-0.7-1l0.1-1.7v-8.5l-0.1-0.9l0.1-0.5H113l0.4-0.8l-0.4-0.5l0.1-0.1v-0.9
			c0-1,0.4-2.6,1.3-4.7c2.6-3.8,5.9-5.7,9.6-5.7h0.4l0.4,0.3h0.6v-0.3L126.6,378.1z"/>
	</defs>
	<clipPath id="SVGID_98_">
		<use xlink:href="#SVGID_97_"  overflow="visible"/>
	</clipPath>
	<g clip-path="url(#SVGID_98_)">
		<defs>
			<rect id="SVGID_99_" x="43" y="-31.6" width="600" height="600"/>
		</defs>
		<clipPath id="SVGID_100_">
			<use xlink:href="#SVGID_99_"  overflow="visible"/>
		</clipPath>
		<rect x="108" y="372.9" clip-path="url(#SVGID_100_)" width="467.4" height="132.4"/>
	</g>
</g>
</svg>
