<?xml version="1.0" encoding="UTF-8" standalone="no"?>
<svg width="458px" height="123px" viewBox="0 0 458 123" version="1.1" xmlns="http://www.w3.org/2000/svg" xmlns:xlink="http://www.w3.org/1999/xlink" xmlns:sketch="http://www.bohemiancoding.com/sketch/ns">
    <!-- Generator: Sketch 3.4.3 (16044) - http://www.bohemiancoding.com/sketch -->
    <title>STEGO</title>
    <desc>Created with Sketch.</desc>
    <defs></defs>
    <g id="Page-1" stroke="none" stroke-width="1" fill="none" fill-rule="evenodd" sketch:type="MSPage">
        <g id="stego-logo" sketch:type="MSArtboardGroup" transform="translate(-70.000000, -409.000000)" fill="#000000">
            <path d="M83.6035156,409.725371 L87.0898438,409.86209 L92.0800781,409.86209 L92.0800781,410.135528 L92.8320312,409.998809 L93.2421875,410.135528 L97.6855469,409.86209 L105.751953,409.86209 L119.355469,409.998809 L119.902344,409.86209 L120.517578,409.998809 L132.822266,410.135528 L137.607422,410.135528 L142.871094,410.408965 L142.871094,432.283965 L142.734375,433.104278 L142.871094,433.856231 L142.734375,434.266387 L133.984375,434.266387 L133.4375,434.129668 L132.822266,434.266387 L132.548828,434.266387 L132.001953,434.129668 L131.865234,434.266387 L131.728516,434.266387 L129.951172,434.129668 L128.857422,434.266387 L128.857422,434.129668 L128.720703,434.266387 L126.806641,434.129668 L106.845703,434.266387 L106.708984,434.403106 L106.025391,434.266387 L97.9589844,434.266387 L97.1386719,433.99295 L96.25,434.129668 L95.5664062,433.514434 C95.5664062,433.651153 95.1790403,433.856229 94.4042969,434.129668 L94.1308594,435.155059 L94.2675781,437.137481 L94.1308594,437.137481 L94.2675781,437.2742 L94.2675781,438.026153 L94.1308594,438.709746 C92.8548113,438.800893 92.2167969,438.983183 92.2167969,439.256621 L92.2167969,439.4617 C93.5839912,439.643992 94.2675781,439.826282 94.2675781,440.008575 L94.2675781,444.315215 L94.1308594,444.86209 L94.2675781,445.477325 L93.9941406,446.776153 L94.4042969,447.869903 L94.5410156,447.869903 L94.5410156,447.733184 L94.4042969,447.04959 L94.5410156,446.912871 L94.6777344,446.912871 L95.4296875,447.323028 C95.7942727,447.049589 96.2044248,446.912871 96.6601562,446.912871 L112.177734,446.912871 L121.337891,447.596465 L121.337891,447.459746 C121.337891,447.277454 121.201173,447.186309 120.927734,447.186309 L120.927734,446.912871 L122.089844,446.912871 L123.662109,446.776153 L124.072266,447.04959 L124.208984,446.912871 L130.703125,446.912871 L131.591797,447.04959 L132.001953,446.912871 C133.55144,446.912871 135.556628,447.573672 138.017578,448.895293 C138.154298,449.487744 138.723953,450.102972 139.726562,450.740996 C141.822927,452.563922 142.871094,455.343842 142.871094,459.08084 L142.734375,459.08084 L142.871094,459.217559 L142.871094,459.832793 L142.734375,459.969512 L142.871094,460.106231 L142.871094,460.926543 L142.734375,461.815215 L142.871094,462.498809 L142.871094,462.703887 L142.734375,462.840606 L142.871094,462.977325 L142.734375,464.54959 L142.871094,473.573028 L142.871094,482.323028 L142.734375,483.621856 L142.871094,484.168731 L142.597656,487.381621 L142.734375,488.68045 L142.734375,489.637481 L142.597656,490.252715 L142.734375,490.662871 L142.597656,491.9617 L142.734375,494.832793 L142.734375,496.678496 C142.734375,500.688933 141.025408,503.947364 137.607422,506.453887 C136.149081,507.593216 133.665382,508.162871 130.15625,508.162871 L111.767578,508.162871 L109.443359,508.026153 L109.306641,508.162871 L108.28125,508.026153 L97.9589844,508.026153 L95.9765625,507.889434 L95.4296875,508.026153 L94.2675781,507.752715 L93.3789062,508.026153 L90.6445312,508.026153 L89.9609375,508.162871 C88.867182,507.980579 86.8619937,507.889434 83.9453125,507.889434 L70.546875,507.889434 L70.4101562,508.026153 L70.2734375,508.026153 L70.1367188,507.2742 L70.2734375,486.903106 L70.1367188,483.895293 L71.1621094,483.758575 L73.4179688,483.758575 L77.3144531,483.895293 L79.296875,483.758575 L79.296875,483.895293 L79.7753906,483.758575 L82.7832031,483.895293 L83.4667969,483.758575 L84.21875,483.895293 L84.3554688,483.758575 L84.4921875,483.758575 L86.3378906,484.373809 C87.2037804,484.145943 88.3658781,484.032012 89.8242188,484.032012 L90.3710938,484.032012 L90.3710938,484.168731 L89.3457031,484.373809 L89.3457031,484.647246 L101.71875,484.032012 L108.007812,484.032012 L109.306641,484.168731 L109.443359,484.032012 L109.580078,484.032012 L113.339844,484.168731 L117.099609,484.168731 C117.281902,484.168731 117.373047,484.419379 117.373047,484.920684 L117.646484,484.920684 C117.646484,484.328233 117.737629,484.032012 117.919922,484.032012 L118.945312,484.032012 L119.082031,484.168731 L119.21875,484.168731 L119.21875,483.895293 L119.355469,483.895293 L119.21875,483.758575 L119.21875,483.621856 L119.492188,481.912871 L119.355469,476.854278 L119.355469,475.008575 L119.21875,473.026153 L119.355469,472.2742 L119.21875,471.453887 L119.355469,470.838653 L118.671875,470.701934 L117.646484,470.701934 C117.646484,470.337349 117.555339,470.155059 117.373047,470.155059 C117.099608,470.155059 116.940104,470.337349 116.894531,470.701934 L116.621094,470.701934 C114.068998,470.337349 111.927092,470.155059 110.195312,470.155059 L109.443359,470.291778 L108.623047,470.155059 L106.298828,470.155059 L104.726562,470.428496 L104.726562,470.291778 L104.589844,470.428496 L104.453125,470.428496 L100.693359,470.701934 L100.556641,470.565215 L99.8730469,470.701934 L95.4296875,470.701934 L93.1054688,470.838653 L92.96875,470.701934 L92.8320312,470.701934 L91.8066406,470.838653 L91.2597656,470.701934 L89.8242188,470.838653 L83.6035156,470.838653 C79.5019326,470.838653 77.4511719,470.405714 77.4511719,469.539825 C77.4511719,469.084093 76.8359437,468.810658 75.6054688,468.719512 C74.1471281,468.719512 72.6204507,467.033331 71.0253906,463.660918 L70.8886719,463.114043 L71.0253906,463.114043 C71.2532563,463.20519 72.210278,464.504005 73.8964844,467.010528 L74.0332031,467.147246 L74.1699219,467.147246 L70.6835938,461.951934 C70.4101549,461.31391 70.2734375,460.539178 70.2734375,459.627715 C70.3190106,459.171984 70.4101556,458.944121 70.546875,458.944121 L70.4101562,458.807403 L70.4101562,450.877715 L70.546875,449.442168 L70.1367188,449.30545 L70.1367188,448.621856 L70.2734375,448.621856 L70.4101562,448.758575 L70.546875,448.758575 L70.6835938,438.436309 L70.6835938,435.291778 C70.6835938,434.60818 70.4557314,434.266387 70,434.266387 L70.1367188,432.557403 L70.1367188,424.08084 L70,423.192168 L70.1367188,422.645293 L70,422.645293 L70.4101562,421.89334 L70,421.346465 L70.1367188,421.209746 L70.1367188,420.321075 C70.1367188,419.318465 70.5696571,417.746215 71.4355469,415.604278 C74.0787893,411.776134 77.2916478,409.86209 81.0742188,409.86209 L81.484375,409.86209 L81.8945312,410.135528 L82.5097656,410.135528 L82.5097656,409.86209 L83.6035156,409.725371 Z M171.799539,409.725371 L171.799539,409.998809 L171.936257,409.86209 L172.619851,409.998809 L174.738992,409.86209 L199.280007,409.998809 L208.371804,409.998809 L210.764382,410.135528 L210.764382,409.998809 L210.901101,410.135528 L212.610085,409.998809 L215.891335,410.135528 L218.420632,409.998809 L218.420632,410.408965 L218.283914,410.408965 C216.324268,410.682404 215.34446,410.978625 215.34446,411.297637 L217.463601,411.571075 C228.765741,410.614038 235.897831,410.135528 238.860085,410.135528 L239.133523,411.160918 L238.996804,414.715606 L238.996804,420.662871 L238.860085,422.918731 L238.996804,423.05545 L238.996804,423.192168 L238.860085,426.883575 L238.860085,434.129668 C238.860085,434.357534 238.632223,434.494251 238.176492,434.539825 L237.834695,434.539825 L237.834695,434.403106 L236.467507,434.539825 L235.442117,434.539825 L232.229226,434.266387 L227.649148,434.403106 L227.238992,434.403106 L227.102273,434.266387 L226.965554,434.403106 L223.410867,434.403106 L221.838601,434.266387 L221.428445,434.403106 L219.309304,434.266387 L219.172585,434.403106 L219.035867,434.403106 L217.737039,433.99295 L217.053445,434.403106 L216.301492,434.266387 L215.754617,434.403106 L214.865945,434.129668 L214.729226,434.129668 L214.31907,434.403106 L214.455789,434.539825 L214.455789,435.0867 C214.455789,435.268992 214.182354,435.360137 213.635476,435.360137 L213.635476,435.565215 C213.635476,435.747508 213.908911,435.838653 214.455789,435.838653 L214.455789,436.522246 L214.182351,436.932403 L214.455789,436.932403 L214.455789,437.20584 L214.182351,438.36795 L214.455789,438.641387 L214.455789,440.076934 L214.31907,444.998809 L214.31907,445.340606 L214.455789,445.340606 L214.31907,446.707793 L214.31907,453.133575 L214.182351,453.953887 L214.31907,454.090606 L214.182351,457.918731 L214.182351,489.295684 L214.31907,513.973418 L214.455789,516.092559 L214.31907,516.229278 L214.31907,516.365996 L214.455789,516.912871 L214.31907,516.912871 L214.455789,517.04959 L214.455789,529.559356 L214.31907,530.379668 L214.455789,531.131621 L214.455789,531.951934 L214.31907,531.951934 C212.131559,530.174581 208.121182,526.209777 202.28782,520.057403 C201.877662,519.966256 198.710376,516.890115 192.785867,510.828887 C191.373099,509.461693 190.666726,508.618602 190.666726,508.29959 L190.803445,507.821075 L190.666726,507.821075 C190.256568,507.821075 189.960347,507.205846 189.778054,505.975371 L189.914773,505.291778 L189.914773,504.334746 L189.778054,504.129668 C189.960347,503.582791 190.11985,503.309356 190.25657,503.309356 L190.051492,496.951934 L190.051492,494.08084 L190.25657,492.645293 L190.051492,491.414825 L190.051492,489.022246 L190.25657,486.698028 L190.051492,486.287871 L190.25657,486.151153 L190.051492,485.467559 L190.25657,484.578887 L190.051492,483.14334 L190.25657,480.203887 L190.051492,476.102325 L190.051492,475.965606 L190.25657,475.076934 L190.051492,474.940215 L190.051492,474.803496 L190.25657,474.119903 L190.051492,472.137481 C190.188211,467.671313 190.393287,465.2104 190.666726,464.754668 L190.530007,464.61795 L190.666726,463.182403 L190.666726,462.36209 C190.666726,462.134224 190.46165,462.020293 190.051492,462.020293 L190.051492,460.789825 C190.097065,458.69346 190.210996,457.645293 190.393289,457.645293 C190.210996,457.645293 190.051492,456.551554 189.914773,454.364043 L189.778054,454.364043 C189.960347,453.908312 190.051492,453.065221 190.051492,451.834746 L190.051492,445.614043 L190.25657,443.358184 L190.051492,443.221465 L190.051492,443.016387 L190.25657,442.606231 L190.051492,441.512481 L190.25657,440.350371 L190.051492,440.213653 L190.051492,440.076934 L190.25657,439.940215 L190.25657,439.803496 L190.051492,439.39334 L190.530007,435.701934 L190.393289,434.949981 L191.213601,434.813262 L191.213601,434.539825 C190.849016,434.539825 190.666726,434.44868 190.666726,434.266387 L190.393289,433.99295 L190.051492,433.99295 L189.367898,434.539825 L187.795632,434.403106 L187.658914,434.539825 L187.522195,434.539825 L185.129617,434.266387 L183.830789,434.266387 L179.045632,434.403106 L174.328835,434.266387 L173.508523,434.266387 L172.619851,434.129668 L172.483132,434.266387 L171.526101,434.129668 L168.655007,434.129668 L166.535867,433.99295 L166.535867,433.856231 L166.262429,423.328887 L166.262429,411.0242 C166.262429,410.295029 166.399147,409.907663 166.672585,409.86209 L170.363992,409.86209 L171.799539,409.725371 Z M262.183062,410.135528 L271.753374,410.135528 L272.300249,410.272246 L272.710405,410.135528 L273.735796,410.272246 L274.966265,410.135528 L274.966265,410.272246 L275.171343,410.135528 L277.290483,410.272246 L280.229937,410.272246 L280.845171,410.408965 L281.392046,410.272246 L281.528765,410.408965 L281.665483,410.272246 L282.143999,410.272246 L282.690874,410.408965 L283.647905,410.272246 L292.329546,410.272246 L292.466265,410.408965 L292.671343,410.272246 L292.808062,410.272246 L308.599077,410.135528 L309.692827,410.135528 L311.675249,410.272246 L313.110796,410.135528 L313.72603,410.272246 L314.272905,410.135528 L315.093218,410.272246 L316.528765,410.135528 L316.665483,410.135528 L317.280718,410.272246 L317.417437,410.135528 L317.827593,410.135528 L317.827593,410.272246 L319.536577,410.135528 L321.245562,410.135528 L321.245562,410.408965 L323.091265,410.272246 L323.501421,410.408965 L324.800249,410.135528 L327.671343,410.272246 L335.327593,410.272246 L335.327593,412.869903 C334.735142,414.875121 334.438921,417.655041 334.438921,421.209746 L334.438921,434.198028 L333.071733,434.334746 L328.765093,434.334746 L322.817827,434.471465 L322.817827,434.334746 L322.681108,434.471465 L322.54439,434.471465 C321.587354,434.425892 321.108843,434.334747 321.108843,434.198028 L320.698687,434.471465 L319.946733,434.334746 L318.989702,434.471465 C318.306105,434.380319 317.964312,434.289174 317.964312,434.198028 L316.802202,434.471465 L316.255327,434.198028 L316.118608,434.334746 L312.70064,434.334746 L312.563921,434.198028 L312.427202,434.334746 L310.718218,434.334746 L310.581499,434.198028 L310.44478,434.334746 L307.983843,434.334746 L307.16353,434.198028 L306.411577,434.334746 L305.591265,434.334746 L305.454546,434.198028 L305.317827,434.334746 L302.720171,434.334746 L302.583452,434.198028 L302.446733,434.334746 L301.899858,434.334746 L301.76314,434.198028 L301.626421,434.334746 L300.464312,434.334746 L300.327593,434.198028 L300.190874,434.334746 L298.755327,434.334746 L298.618608,434.198028 L298.48189,434.334746 L298.345171,434.334746 L294.927202,434.061309 L292.329546,434.198028 L287.065874,434.198028 C287.065874,433.787869 286.974729,433.582793 286.792437,433.582793 C286.610144,433.582793 286.518999,433.742297 286.518999,434.061309 L286.38228,434.198028 L283.989702,434.198028 L283.374468,434.744903 L285.493608,434.608184 L285.972124,434.608184 L286.108843,435.633575 L285.698687,435.770293 L285.698687,436.043731 L285.972124,436.043731 L285.972124,436.317168 C285.972124,436.499461 285.767048,436.590606 285.35689,436.590606 L285.35689,436.727325 C285.767048,436.727325 285.972124,436.864042 285.972124,437.137481 L285.835405,437.615996 L285.972124,437.752715 L286.108843,437.752715 L285.972124,443.699981 L285.972124,446.707793 L286.245562,447.391387 L286.38228,447.391387 L286.792437,447.11795 L286.929155,447.11795 C287.612753,447.163523 287.954546,447.254668 287.954546,447.391387 C289.32174,447.209094 291.167425,447.11795 293.491655,447.11795 L293.628374,447.254668 L293.765093,447.11795 L317.964312,447.254668 L322.681108,447.254668 L322.954546,447.528106 L322.954546,451.971465 L322.407671,455.662871 L322.54439,457.235137 L322.407671,459.490996 C322.589964,461.313922 322.681108,463.592545 322.681108,466.326934 L322.54439,471.453887 L322.202593,471.453887 L322.202593,471.590606 L317.417437,471.317168 L315.571733,471.317168 L314.409624,471.18045 L312.837358,471.317168 L302.036577,471.317168 L300.874468,471.453887 L299.780718,471.317168 L296.089312,471.317168 L294.790483,471.18045 L294.380327,471.317168 L294.175249,471.18045 L293.354937,471.317168 L291.645952,471.18045 L290.347124,471.317168 L289.253374,470.907012 L289.253374,471.18045 L289.116655,471.18045 L288.501421,471.043731 L287.54439,471.317168 C287.225378,471.134876 287.065874,470.56522 287.065874,469.608184 C286.154411,471.020951 285.698687,472.433698 285.698687,473.846465 L285.835405,473.983184 C285.242954,474.07433 284.946733,474.233834 284.946733,474.4617 L285.835405,474.4617 L285.835405,475.008575 L285.698687,475.897246 L285.972124,476.444121 L285.835405,478.699981 C285.835405,478.927846 285.493612,479.064564 284.810015,479.110137 L284.810015,479.315215 L285.835405,480.135528 L285.835405,481.981231 L284.810015,482.11795 L284.810015,482.391387 L285.835405,482.391387 L285.835405,483.553496 C285.835405,483.781362 286.199985,483.963652 286.929155,484.100371 L287.065874,484.100371 L286.929155,483.963653 L286.929155,483.553496 L298.345171,483.553496 L298.345171,483.963653 L298.755327,483.553496 L300.737749,483.690215 L300.874468,483.553496 L301.011187,483.553496 L301.626421,483.690215 L302.720171,483.553496 L303.608843,483.690215 L304.018999,483.553496 L305.04439,483.690215 L305.181108,483.553496 L305.317827,483.553496 L305.454546,483.690215 L305.591265,483.690215 L306.274858,483.553496 L309.41939,483.690215 L323.227983,483.690215 L324.116655,483.553496 L324.800249,483.690215 L327.94478,483.690215 L330.20064,483.826934 L330.337358,483.690215 L330.474077,483.690215 L332.046343,483.826934 L333.345171,483.826934 C333.983195,483.826934 334.302202,483.735789 334.302202,483.553496 C334.894653,483.735789 335.190874,483.918079 335.190874,484.100371 L335.190874,485.946075 L335.054155,487.928496 L335.190874,488.543731 L335.054155,488.543731 L335.190874,488.68045 L335.190874,488.817168 L335.054155,490.115996 L335.190874,490.662871 L335.054155,490.79959 L335.190874,491.209746 L335.054155,494.354278 L335.190874,498.045684 L335.054155,498.797637 L335.190874,499.481231 L335.054155,499.481231 L335.190874,499.891387 L335.054155,500.028106 L335.190874,500.506621 L335.054155,503.719512 L335.190874,505.770293 L335.054155,505.907012 L335.054155,506.043731 L335.190874,506.453887 L335.054155,508.162871 L331.636187,508.162871 L330.747515,508.026153 L330.610796,508.162871 L328.901812,508.026153 L324.66353,508.026153 L320.493608,507.615996 L312.153765,507.752715 L311.53853,507.889434 L310.854937,507.615996 C310.444778,507.798289 309.82955,507.889434 309.009233,507.889434 L305.454546,507.889434 L304.702593,507.752715 L303.88228,507.889434 L295.20064,507.889434 L293.628374,508.026153 L293.081499,507.889434 L292.94478,508.026153 L292.192827,507.889434 L291.372515,508.026153 L291.099077,508.026153 L291.099077,507.889434 L289.390093,508.026153 L287.817827,508.026153 L286.108843,507.889434 L284.399858,508.026153 L282.964312,508.026153 L281.528765,507.889434 L280.845171,508.026153 L276.265093,507.889434 L275.44478,508.026153 L274.282671,507.889434 L273.462358,508.026153 L272.16353,507.889434 L271.274858,507.889434 L267.85689,508.026153 L267.173296,507.752715 L267.310015,507.000762 L266.899858,507.000762 C266.899858,507.684359 266.193485,508.026153 264.780718,508.026153 L262.046343,507.889434 L262.046343,507.615996 L261.909624,505.907012 L262.183062,503.719512 L262.046343,503.582793 L262.183062,502.8992 L262.183062,500.506621 L262.31978,498.45584 L262.183062,497.908965 L262.31978,497.772246 L262.183062,497.36209 L262.31978,493.192168 L262.31978,491.9617 C262.410927,491.323676 262.547644,490.981882 262.729937,490.936309 C262.456498,489.888127 262.31978,487.563931 262.31978,483.963653 L262.31978,446.160918 C262.593219,443.791115 262.798295,440.37318 262.935015,435.907012 L262.729937,435.155059 L262.935015,434.744903 L262.729937,434.198028 L262.935015,434.198028 C262.524856,433.286565 262.31978,432.511833 262.31978,431.873809 L262.31978,431.053496 L262.593218,431.053496 L262.593218,431.326934 L262.729937,431.326934 L262.729937,430.780059 C262.729937,430.278754 262.593219,430.028106 262.31978,430.028106 L262.31978,429.481231 L262.456499,429.344512 L262.31978,429.207793 L262.31978,428.660918 L262.729937,428.45584 L262.456499,427.635528 L262.593218,426.3367 L262.31978,420.79959 L262.593218,416.971465 L262.593218,416.698028 L262.456499,416.698028 L262.31978,417.655059 L262.046343,417.655059 L262.046343,413.006621 L262.183062,410.135528 Z M262.456499,415.946075 L262.456499,416.219512 L262.593218,416.219512 C262.91223,413.120538 263.254023,411.571075 263.618608,411.571075 C263.93762,411.571075 264.416131,412.983821 265.054155,415.809356 L265.054155,415.946075 L265.190874,415.946075 L265.190874,415.672637 C264.598423,412.664809 264.119912,411.160918 263.755327,411.160918 L263.618608,411.160918 C263.20845,411.160918 262.821084,412.755954 262.456499,415.946075 L262.456499,415.946075 Z M265.327593,416.834746 L265.327593,417.381621 L265.464312,417.381621 L265.464312,416.834746 L265.327593,416.834746 Z M265.464312,417.51834 L265.464312,417.928496 L265.60103,418.543731 L265.737749,418.543731 L265.737749,418.407012 L265.60103,417.51834 L265.464312,417.51834 Z M368.494319,409.93045 L369.041194,409.93045 L369.314631,410.203887 L369.45135,410.067168 L369.656428,410.067168 L373.006038,410.203887 L375.808772,410.067168 L376.218928,410.203887 L376.218928,410.477325 L373.82635,410.750762 L373.82635,410.887481 L374.099788,410.887481 C375.968287,410.705188 377.33546,410.477326 378.20135,410.203887 L381.55096,410.203887 L381.687678,410.340606 L381.824397,410.203887 L387.976741,410.203887 L393.51385,410.067168 L395.017756,410.203887 L396.726741,410.067168 L398.9826,410.203887 L400.759944,410.067168 L401.1701,410.203887 L402.468928,410.067168 L404.45135,410.203887 L405.5451,410.067168 L406.365413,410.203887 L407.664241,410.067168 L407.664241,410.203887 L407.80096,410.067168 L407.937678,410.067168 L408.347835,410.203887 L408.621272,410.203887 L408.621272,410.067168 L417.918147,410.340606 C418.146013,410.340606 418.46502,410.522896 418.875178,410.887481 C419.011898,410.522896 419.148615,410.340606 419.285335,410.340606 L420.037288,410.340606 C421.860213,410.340606 423.478036,411.046979 424.890803,412.459746 L424.890803,412.186309 C425.71112,412.186309 426.896004,413.302834 428.445491,415.535918 C428.810076,415.535918 429.311373,417.358817 429.949397,421.004668 L429.812678,421.004668 L430.359553,424.969512 L430.222835,425.789825 L430.359553,426.3367 L430.222835,428.592559 L430.222835,431.942168 L430.359553,433.240996 L430.222835,433.377715 L430.222835,433.787871 L430.359553,433.787871 L430.222835,435.496856 L430.222835,440.55545 L430.086116,441.102325 L430.222835,441.6492 L430.222835,443.221465 L430.086116,443.76834 L430.222835,444.178496 C430.177261,445.773556 430.040544,446.571075 429.812678,446.571075 L428.445491,446.571075 L425.779475,446.434356 L423.523616,446.571075 C417.7814,446.479928 413.839382,446.297638 411.697444,446.0242 L411.560725,446.160918 L411.424006,446.160918 L409.646663,446.0242 L409.646663,446.297637 L409.031428,446.297637 L409.031428,446.0242 L408.621272,445.682403 L407.937678,445.887481 L407.80096,445.887481 C407.162936,445.887481 406.843928,445.545687 406.843928,444.86209 L406.843928,437.137481 C406.843928,436.590603 407.026218,436.317168 407.390803,436.317168 L407.390803,436.18045 C407.390803,435.998157 407.208513,435.907012 406.843928,435.907012 L406.843928,435.223418 L408.074397,434.881621 L408.074397,434.744903 L407.937678,434.744903 L407.117366,434.881621 L406.980647,434.881621 L407.117366,434.334746 L406.843928,433.651153 L406.70721,433.651153 L406.228694,434.061309 L405.955256,434.061309 L405.955256,433.92459 L404.998225,434.061309 L400.349788,434.061309 L400.213069,433.92459 L400.07635,434.061309 L398.9826,434.061309 L394.470881,433.92459 L394.470881,433.514434 L394.197444,433.514434 C394.197444,433.787873 394.106299,433.92459 393.924006,433.92459 L385.174006,433.92459 L384.900569,433.651153 L384.900569,432.83084 L385.037288,432.215606 L384.900569,431.668731 C384.62713,431.668731 384.490413,432.283959 384.490413,433.514434 L384.490413,433.92459 L383.123225,433.92459 L382.097835,433.651153 C381.824396,434.106884 381.550961,434.334746 381.277522,434.334746 L381.414241,435.01834 L381.414241,436.18045 L381.55096,437.547637 L381.414241,437.547637 L381.55096,437.684356 L381.55096,437.889434 L381.414241,438.29959 L381.55096,438.709746 L381.414241,439.803496 L381.55096,442.606231 C381.004082,447.163545 380.730647,452.495523 380.730647,458.602325 L380.593928,459.627715 L381.004085,459.354278 L381.140803,459.354278 L381.140803,460.721465 L380.867366,460.721465 L380.730647,462.840606 L380.730647,463.5242 L380.867366,469.129668 L381.004085,468.99295 L381.277522,468.99295 L381.277522,470.01834 L380.867366,470.01834 C381.140805,472.843875 381.277522,475.304788 381.277522,477.401153 L381.277522,481.229278 L381.140803,481.776153 L381.277522,482.323028 L381.277522,482.459746 L381.140803,483.758575 L381.277522,484.168731 L381.961116,484.032012 L382.371272,484.30545 L382.507991,484.168731 L385.789241,484.168731 C385.789241,484.533316 385.880386,484.715606 386.062678,484.715606 L386.199397,484.168731 L405.134944,484.442168 L405.271663,484.578887 L405.408381,484.578887 L406.70721,484.30545 L406.70721,484.168731 L406.365413,484.168731 L406.365413,483.895293 C406.638852,483.439562 407.026217,483.2117 407.527522,483.2117 L408.211116,483.2117 L408.211116,482.869903 C407.664238,482.82433 407.390803,482.733185 407.390803,482.596465 L407.254085,482.733184 L406.70721,482.733184 C406.297051,482.596464 406.091975,482.277457 406.091975,481.776153 L406.091975,480.819121 L406.843928,476.444121 L406.091975,476.444121 L406.091975,473.641387 C406.59328,473.641387 406.843928,473.550242 406.843928,473.36795 L406.843928,473.094512 L406.091975,472.957793 L406.091975,472.410918 C406.091975,472.183053 406.228693,472.069121 406.502131,472.069121 L406.502131,471.932403 L406.365413,471.795684 L406.502131,471.658965 L406.502131,471.522246 L405.955256,470.975371 C405.681818,470.975371 405.317238,471.157661 404.861506,471.522246 L404.588069,471.522246 L404.588069,471.385528 L404.45135,471.522246 L404.314631,471.522246 C402.628425,471.476673 401.785335,471.385528 401.785335,471.248809 L401.785335,470.975371 L401.648616,470.975371 L401.648616,471.385528 L400.486506,471.385528 C400.258641,471.385528 400.121923,471.203238 400.07635,470.838653 L399.939631,470.701934 L399.802913,470.701934 L400.07635,471.385528 L394.197444,471.385528 L393.787288,470.975371 L393.924006,470.01834 L393.924006,467.625762 L394.060725,467.078887 L393.787288,465.64334 L393.924006,465.233184 L393.787288,463.660918 L393.787288,461.541778 L394.060725,461.131621 L394.060725,460.994903 L393.787288,460.584746 L393.787288,460.037871 C393.787288,459.810006 394.288585,459.582143 395.291194,459.354278 L395.974788,459.490996 L397.136897,459.490996 L397.820491,459.354278 L403.836116,460.037871 L403.836116,459.764434 L403.42596,459.764434 L403.42596,459.490996 L428.992366,459.490996 C429.812682,459.490996 430.222835,459.901149 430.222835,460.721465 L430.086116,465.096465 L430.086116,469.403106 L429.949397,473.504668 L430.086116,473.641387 L429.949397,475.076934 L429.949397,494.422637 L429.812678,498.182403 C429.630386,498.182403 429.448096,498.478624 429.265803,499.071075 L429.812678,499.207793 C428.491057,502.671352 427.465677,504.539823 426.736506,504.813262 L426.599788,504.813262 L426.599788,504.676543 L428.035335,499.071075 L427.830256,498.934356 L427.693538,498.934356 L425.779475,505.633575 C423.728684,507.319781 421.655137,508.162871 419.558772,508.162871 L418.73846,508.162871 C418.73846,507.752713 418.55617,507.433706 418.191585,507.20584 C417.918146,507.20584 417.781428,507.524847 417.781428,508.162871 L411.834163,508.162871 L411.287288,508.026153 L411.150569,508.162871 L411.01385,508.162871 L387.703303,507.889434 L387.293147,507.752715 L386.609553,507.889434 L386.199397,507.889434 L386.062678,507.752715 L385.92596,507.889434 L377.17596,507.752715 L370.066585,507.752715 L369.793147,508.026153 L369.45135,508.026153 L369.45135,507.889434 L368.084163,508.026153 L367.947444,508.026153 C366.990408,508.026153 365.486517,507.547642 363.435725,506.590606 C361.977385,505.679143 360.906432,504.699335 360.222835,503.651153 C360.632993,503.514433 360.952,503.240998 361.179866,502.83084 L361.179866,502.694121 C360.724134,503.149853 360.313982,503.377715 359.949397,503.377715 L359.812678,503.377715 C358.946789,501.919375 358.51385,500.985139 358.51385,500.574981 L358.650569,499.754668 C358.51385,498.068462 358.285987,497.225371 357.966975,497.225371 C357.739109,497.225371 357.602392,496.906364 357.556819,496.26834 L357.966975,496.26834 L357.966975,496.063262 L357.556819,495.516387 L357.556819,475.350371 L357.693538,472.684356 L357.556819,472.547637 L357.693538,471.932403 L357.830256,461.541778 L357.830256,456.551543 L357.966975,454.979278 L357.830256,454.842559 L357.966975,454.158965 L357.966975,449.100371 C357.966975,445.727959 358.103693,444.041778 358.377131,444.041778 L358.240413,443.905059 L358.240413,443.76834 L358.377131,441.785918 L357.966975,441.785918 L358.103694,440.350371 L358.103694,438.846465 L358.787288,430.438262 L358.51385,430.438262 L358.240413,433.240996 L358.240413,433.514434 L357.830256,433.514434 L357.830256,425.106231 L358.240413,425.106231 C358.103693,423.875756 357.966976,423.260528 357.830256,423.260528 L357.966975,422.713653 L357.830256,421.414825 C357.830256,418.58929 359.334148,415.741011 362.341975,412.869903 C364.894071,410.910257 366.944832,409.93045 368.494319,409.93045 L368.494319,409.93045 Z M370.476741,410.887481 L370.476741,411.0242 L371.570491,411.160918 L373.552913,410.887481 L373.552913,410.750762 L373.142756,410.750762 L370.476741,410.887481 Z M366.990413,411.160918 L369.656428,411.160918 L369.656428,411.0242 L367.947444,410.887481 L367.26385,410.887481 L366.990413,411.160918 Z M363.435725,414.032012 L363.435725,414.578887 L363.709163,414.578887 L363.709163,414.30545 L363.435725,414.032012 Z M403.972835,459.901153 L403.972835,460.037871 L404.45135,460.17459 L404.588069,460.037871 L404.724788,460.037871 L404.861506,460.17459 L405.134944,460.17459 L405.134944,460.037871 L404.45135,459.901153 L403.972835,459.901153 Z M506.729404,409.520293 L507.344639,409.657012 L507.344639,409.520293 L507.481358,409.657012 L510.899326,409.657012 L512.950108,409.793731 L514.659092,409.520293 L514.659092,409.793731 L516.094639,409.520293 C516.55037,409.520293 516.778233,409.702583 516.778233,410.067168 C517.32511,410.38618 519.011291,410.819119 521.836826,411.365996 C522.885009,411.912874 523.409092,412.550889 523.409092,413.280059 C524.138262,414.875119 524.707918,415.832141 525.118076,416.151153 L525.459873,416.151153 L525.596592,416.014434 C526.14347,416.014434 526.416904,417.290463 526.416904,419.842559 L526.553623,419.979278 C526.553623,420.571729 526.758699,420.86795 527.168858,420.86795 L527.168858,421.414825 L527.032139,421.551543 L527.168858,421.756621 L527.168858,421.89334 L527.305576,423.465606 L527.168858,428.319121 L527.168858,439.256621 L527.032139,440.418731 L527.168858,441.512481 L527.168858,445.408965 L527.032139,446.844512 L527.168858,448.280059 L527.032139,449.989043 L527.168858,450.877715 L527.032139,454.7742 L527.168858,455.86795 L527.032139,458.192168 L527.032139,462.498809 L527.305576,495.106231 L527.442295,497.088653 C526.804271,500.369919 525.596601,502.921977 523.819248,504.744903 C521.859603,506.658975 518.760676,507.615996 514.522373,507.615996 L510.079014,507.752715 L498.321201,507.410918 L490.528233,507.410918 L486.358311,507.615996 L486.221592,507.410918 L484.786045,507.615996 C471.52426,507.66157 464.870681,507.752714 464.825108,507.889434 L464.825108,508.162871 L464.278233,508.162871 C461.63499,508.162871 458.900643,506.636194 456.075108,503.582793 C454.525621,501.759867 453.750889,498.979947 453.750889,495.24295 L453.61417,490.662871 L453.750889,489.637481 C453.47745,489.181749 453.340733,484.145992 453.340733,474.530059 L453.477451,434.949981 L453.340733,429.754668 L453.477451,429.754668 L453.340733,429.61795 L453.477451,428.934356 L453.204014,424.012481 L453.204014,422.166778 C453.204014,416.606854 455.596568,412.82434 460.381748,410.819121 L460.655186,410.819121 L461.133701,411.092559 L462.979404,410.95584 L462.979404,410.682403 L462.090733,410.682403 L462.090733,410.408965 C463.275634,409.998807 464.665594,409.793731 466.260654,409.793731 L467.422764,409.793731 L467.422764,409.93045 L467.286045,410.067168 L467.286045,410.272246 L467.422764,410.272246 L467.969639,410.067168 L468.584873,410.272246 C469.724202,409.953234 471.000231,409.793731 472.412998,409.793731 L486.495029,409.793731 L488.272373,409.657012 L488.272373,409.793731 L488.409092,409.657012 L489.981358,409.657012 L490.118076,409.793731 L490.254795,409.657012 L494.151279,409.657012 L494.287998,409.793731 L494.424717,409.657012 L505.909092,409.657012 L506.729404,409.520293 Z M464.825108,410.545684 L464.825108,410.682403 L465.440342,410.682403 L465.440342,410.408965 L465.235264,410.408965 L464.825108,410.545684 Z M463.252842,410.682403 L463.252842,410.819121 L463.662998,410.819121 L464.55167,410.682403 L464.55167,410.545684 L464.278233,410.545684 L463.252842,410.682403 Z M486.495029,434.198028 L485.811436,434.061309 L485.33292,434.198028 L484.512608,434.061309 L484.375889,434.198028 L484.23917,434.198028 L484.102451,434.061309 L483.897373,434.061309 L483.760654,434.198028 L482.803623,434.061309 L482.05167,434.061309 L480.342686,434.198028 L480.342686,434.061309 L479.932529,434.198028 L477.608311,434.061309 L477.608311,435.633575 L477.471592,436.248809 L477.745029,436.932403 L477.608311,440.55545 L477.881748,446.844512 L477.745029,446.844512 L477.881748,446.981231 L477.881748,452.860137 L477.745029,452.996856 L477.881748,453.201934 C477.517163,456.073042 477.334873,458.602314 477.334873,460.789825 L477.334873,463.045684 L477.881748,475.282012 L477.745029,475.418731 L477.745029,475.55545 L477.881748,476.444121 L477.881748,478.699981 L477.745029,478.905059 L477.881748,479.041778 L477.881748,479.315215 L477.745029,480.340606 L477.881748,481.571075 C477.881748,482.436964 477.790603,482.869903 477.608311,482.869903 L477.745029,483.006621 L477.745029,483.621856 L477.608311,484.647246 L480.616123,484.30545 L481.026279,484.442168 L481.231358,484.30545 L481.641514,484.442168 L482.05167,486.629668 L482.188389,486.629668 L482.188389,484.442168 L493.809483,484.168731 L494.561436,484.032012 L495.245029,484.168731 L499.004795,484.032012 L499.756748,484.168731 L501.192295,484.032012 L502.286045,484.032012 L502.901279,484.442168 L503.037998,484.442168 L503.174717,484.032012 L502.764561,482.323028 L503.037998,480.887481 L502.901279,478.016387 L502.901279,477.879668 L503.174717,477.879668 L503.311436,479.588653 L503.448154,479.588653 L503.448154,479.041778 C503.083569,474.43889 502.901279,471.134887 502.901279,469.129668 L502.901279,460.926543 L503.037998,460.789825 L502.901279,460.653106 L503.037998,459.901153 L502.901279,456.483184 L502.901279,452.723418 L503.037998,452.176543 L502.901279,452.039825 L503.037998,448.895293 L503.037998,441.6492 L503.311436,441.6492 L503.721592,444.86209 L503.858311,444.86209 L503.858311,444.383575 C503.676018,441.239028 503.357011,439.666778 502.901279,439.666778 L503.037998,437.20584 L503.037998,435.496856 L503.448154,434.949981 L503.448154,434.813262 L503.174717,434.813262 L503.174717,434.334746 C503.174717,434.061308 503.51651,433.92459 504.200108,433.92459 L504.200108,433.787871 C503.470937,433.787871 502.992426,433.696726 502.764561,433.514434 C502.764561,433.833446 502.126546,434.015736 500.850498,434.061309 L496.680576,434.061309 C496.680576,433.605577 496.589431,433.377715 496.407139,433.377715 L486.495029,434.198028 Z M503.858311,444.998809 L503.858311,445.545684 L504.063389,445.545684 L504.063389,444.998809 L503.858311,444.998809 Z M503.858311,446.160918 L503.858311,446.297637 L504.200108,448.895293 L504.336826,448.895293 L504.336826,447.596465 L504.200108,446.160918 L503.858311,446.160918 Z M504.336826,449.032012 L504.336826,449.715606 L504.473545,449.715606 L504.473545,449.032012 L504.336826,449.032012 Z M504.336826,449.989043 L504.336826,450.604278 L504.473545,451.014434 L504.610264,451.014434 L504.610264,450.877715 L504.473545,449.989043 L504.336826,449.989043 Z M504.610264,452.449981 L504.473545,452.860137 L504.610264,452.996856 L504.746983,452.996856 L504.746983,452.449981 L504.610264,452.449981 Z M503.448154,479.86209 L503.448154,480.477325 L503.584873,480.477325 L503.584873,479.86209 L503.448154,479.86209 Z" id="STEGO" sketch:type="MSShapeGroup"></path>
        </g>
    </g>
</svg>