<?xml version="1.0" encoding="UTF-8" standalone="no"?>
<svg width="600px" height="600px" viewBox="0 0 600 600" version="1.1" xmlns="http://www.w3.org/2000/svg" xmlns:xlink="http://www.w3.org/1999/xlink" xmlns:sketch="http://www.bohemiancoding.com/sketch/ns">
    <!-- Generator: Sketch 3.4.3 (16044) - http://www.bohemiancoding.com/sketch -->
    <title>stego-logo</title>
    <desc>Created with Sketch.</desc>
    <defs></defs>
    <g id="Page-1" stroke="none" stroke-width="1" fill="none" fill-rule="evenodd" sketch:type="MSPage">
        <g id="stego-logo" sketch:type="MSArtboardGroup" fill="#000000">
            <g id="Page-1" sketch:type="MSLayerGroup" transform="translate(26.249570, 71.705864)">
                <path d="M541.518024,284.319577 C541.518024,284.319577 503.51829,283.978381 457.242566,254.627574 C416.82272,228.990251 389.828547,116.601813 296.745466,84.4896978 C203.67032,52.385517 125.806176,168.773091 95.3127583,168.773091 C64.8114061,168.773091 69.6119571,151.911651 43.9508299,151.911651 C5.42739982,151.911651 0.618914015,168.773091 10.25969,173.573642 C24.6692779,180.794306 38.5551692,168.146242 60.0029203,182.405069 C86.1639396,205.098583 121.814974,216.905558 137.867064,224.93557 C153.919155,232.957648 201.250207,244.177449 220.531759,244.177449 C239.781572,244.177449 325.667794,222.515458 346.52837,192.823455 C368.190361,205.654018 401.357804,246.597561 425.971538,264.23661 C462.884205,290.707087 541.518024,284.287838 541.518024,284.287838 L541.518024,284.319577 Z" id="Fill-1" sketch:type="MSShapeGroup"></path>
                <path d="M170.75679,229.736121 C170.75679,229.736121 172.367553,296.348726 165.948304,301.958626 C159.529055,307.568526 144.286313,309.980704 140.255438,301.149277 C136.256301,292.31785 151.475238,220.095345 151.475238,220.095345 L170.75679,229.736121 Z" id="Fill-2" sketch:type="MSShapeGroup"></path>
                <path d="M103.334836,205.685758 C103.334836,205.685758 119.394861,227.347748 117.784098,240.987661 C116.173335,254.627574 99.0262424,265.291938 99.311895,293.960353 C99.3991778,303.720151 117.315945,302.418844 122.584649,296.380465 C126.679003,291.667197 120.973886,281.129789 124.195412,273.909126 C127.424874,266.680527 150.665889,245.819951 150.665889,245.819951 L156.275789,214.517185 L103.334836,205.685758 Z" id="Fill-3" sketch:type="MSShapeGroup"></path>
                <path d="M262.221172,231.346885 C262.221172,231.346885 300.744603,269.068901 299.943188,281.09805 C299.133839,293.119264 291.571979,294.111114 294.333288,301.149277 C296.689922,307.195591 319.216805,306.759177 325.636055,301.149277 C332.055304,295.539377 316.804628,221.706109 305.584828,216.06447 C294.365027,210.454569 262.252912,231.315146 262.252912,231.315146 L262.221172,231.346885 Z" id="Fill-4" sketch:type="MSShapeGroup"></path>
                <path d="M317.606042,209.684894 C317.606042,209.684894 350.527507,236.155371 356.137407,248.208324 C361.747307,260.237474 372.189497,276.289564 368.96797,282.708813 C365.746444,289.128063 352.106531,304.370804 344.076518,297.15014 C336.054441,289.929477 342.465755,285.93034 341.664341,277.098913 C340.854992,268.267486 304.743739,248.208324 304.743739,248.208324 L296.721661,216.096209 L317.606042,209.684894 Z" id="Fill-5" sketch:type="MSShapeGroup"></path>
                <path d="M517.777117,282.613596 C520.474947,275.765868 527.013219,268.267486 538.756715,259.928017 C529.274635,263.213022 519.546576,265.291938 511.516564,275.829346 C513.03211,266.252048 516.102875,256.055837 525.124737,243.471252 C510.30254,253.572246 507.731667,265.41096 502.994594,276.940217 L517.777117,282.613596 Z" id="Fill-6" sketch:type="MSShapeGroup"></path>
                <path d="M492.235012,274.647062 C500.479264,259.340842 513.682763,247.343432 526.299087,234.909608 C513.03211,244.026687 497.940129,250.041262 488.854789,266.125092 C485.260327,256.238337 482.411736,242.693642 480.332819,225.276767 C479.563144,243.312556 476.920857,269.600532 480.332819,269.537054 L492.235012,274.647062 Z" id="Fill-7" sketch:type="MSShapeGroup"></path>
                <path d="M466.692906,262.189433 C466.692906,262.189433 473.51683,261.633998 475.222811,257.6666 C476.920857,253.699203 475.222811,240.05929 475.222811,240.05929 C475.222811,240.05929 464.99486,243.471252 463.320619,246.875279 C461.614638,250.287241 461.614638,258.777471 461.614638,258.777471 L466.692906,262.189433 Z" id="Fill-8" sketch:type="MSShapeGroup"></path>
                <path d="M445.245155,246.661039 C445.245155,246.661039 445.840265,240.24179 448.252443,237.234503 C450.672555,234.23515 460.281592,232.433952 460.281592,232.433952 C460.281592,232.433952 463.503119,241.051139 461.678116,244.859841 C459.876918,248.676477 451.846905,252.675614 451.846905,252.675614 L445.245155,246.661039 Z" id="Fill-9" sketch:type="MSShapeGroup"></path>
                <path d="M425.685886,220.349259 C425.685886,220.349259 430.676872,214.612402 435.731336,211.263919 C440.785801,207.915435 456.09202,209.835655 456.09202,209.835655 C456.09202,209.835655 456.774413,224.316656 452.21984,229.180686 C447.697007,234.012976 433.715898,236.18711 433.715898,236.18711 L425.685886,220.349259 Z" id="Fill-10" sketch:type="MSShapeGroup"></path>
                <path d="M409.110099,196.354439 C409.110099,196.354439 410.808145,183.587353 419.615767,180.762566 C428.415455,177.913975 447.419289,181.040284 447.419289,181.040284 C447.419289,181.040284 447.697007,198.925312 443.451892,203.45608 C439.206776,207.978913 418.774679,209.121524 418.774679,209.121524 L409.110099,196.354439 Z" id="Fill-11" sketch:type="MSShapeGroup"></path>
                <path d="M390.383982,169.392005 C390.383982,169.392005 393.581705,158.664162 400.611933,154.633286 C406.785204,151.102302 431.271981,152.37187 431.271981,152.37187 C431.271981,152.37187 425.662081,173.700599 417.941526,177.913975 C411.062058,181.690937 402.349653,182.436808 402.349653,182.436808 L390.383982,169.392005 Z" id="Fill-12" sketch:type="MSShapeGroup"></path>
                <path d="M361.993286,135.637387 C361.993286,135.637387 358.398823,120.537472 368.2221,113.784961 C382.695166,103.866467 436.881881,106.961037 436.881881,106.961037 C436.881881,106.961037 410.99858,149.428061 404.238135,150.943607 C399.128127,152.094152 384.964517,156.061549 384.964517,156.061549 L361.993286,135.637387 Z" id="Fill-13" sketch:type="MSShapeGroup"></path>
                <path d="M320.867243,101.882769 C320.867243,101.882769 317.455281,82.6012166 322.009853,74.0792467 C326.532686,65.5572768 367.698403,34.341793 387.844848,44.8474617 C374.79211,69.8341314 383.322015,100.176788 376.220373,106.992777 C369.126666,113.8167 354.923383,112.110719 351.828813,117.220727 C348.694569,122.33867 320.891047,101.914508 320.891047,101.914508 L320.867243,101.882769 Z" id="Fill-14" sketch:type="MSShapeGroup"></path>
                <path d="M250.874416,80.9269749 C250.874416,80.9269749 244.121905,73.023919 247.58941,59.82042 C251.961482,43.2366983 278.955655,36.0795132 298.951339,4.80055101 C298.951339,4.80055101 325.699533,49.1005119 323.128659,61.6216185 C320.549851,74.1744643 310.972553,78.6020799 309.488747,88.8617699 C307.997005,99.1214599 250.842676,80.8952357 250.842676,80.8952357 L250.874416,80.9269749 Z" id="Fill-15" sketch:type="MSShapeGroup"></path>
                <path d="M213.803053,92.0832967 C213.803053,92.0832967 192.172802,85.8862218 190.776278,71.7543518 C187.673773,40.1976718 211.700332,2.45185167 211.700332,2.45185167 C212.009789,5.23696474 244.859841,40.7927814 246.470604,45.1331143 C250.382458,55.6705222 237.734395,85.4260037 237.734395,85.4260037 L213.803053,92.0832967 Z" id="Fill-16" sketch:type="MSShapeGroup"></path>
                <path d="M174.724187,115.490942 C174.724187,115.490942 156.466224,110.563434 152.030673,104.144185 C146.920665,96.7648258 146.635013,67.5409756 144.373596,55.329326 C152.586109,61.2804223 180.111913,74.0475075 186.372466,78.8797977 C189.506711,83.4105657 192.045845,101.573312 193.751826,104.144185 C195.457807,106.68332 174.747992,115.490942 174.747992,115.490942 L174.724187,115.490942 Z" id="Fill-17" sketch:type="MSShapeGroup"></path>
                <path d="M145.214684,139.041414 C145.214684,139.041414 130.741618,132.225425 126.21085,127.139221 C121.688017,122.029213 117.411163,90.8137295 117.411163,90.8137295 C117.411163,90.8137295 147.476101,103.866467 151.752956,108.698758 C155.998071,113.538983 158.568945,127.424874 158.568945,127.424874 L145.214684,139.041414 Z" id="Fill-18" sketch:type="MSShapeGroup"></path>
                <path d="M123.671716,153.522415 L133.312492,146.698491 C133.312492,146.698491 133.59021,143.572182 130.178248,137.343368 C126.774221,131.106619 105.199513,124.568348 105.199513,124.568348 C105.199513,124.568348 108.048104,142.453376 111.737784,145.555881 C115.427464,148.68219 123.639977,153.490676 123.639977,153.490676 L123.671716,153.522415 Z" id="Fill-19" sketch:type="MSShapeGroup"></path>
                <path d="M106.000927,166.598957 C106.000927,166.598957 96.3363469,163.218734 93.3607987,157.862748 C90.3852506,152.498826 91.996014,136.692715 91.996014,136.692715 C91.996014,136.692715 107.183212,142.516854 109.936586,147.007948 C112.697894,151.506977 113.507243,162.385581 113.507243,162.385581 L106.000927,166.598957 Z" id="Fill-20" sketch:type="MSShapeGroup"></path>
                <path d="M83.3788265,169.106352 C83.3788265,169.106352 81.6728456,160.028947 81.3951278,157.20416 C81.1174099,154.355568 84.521437,147.571319 84.521437,147.571319 C84.521437,147.571319 89.9170977,153.236762 89.9170977,158.632423 C89.9170977,164.028084 89.0839442,171.685161 89.0839442,171.685161 L83.3788265,169.106352 Z" id="Fill-21" sketch:type="MSShapeGroup"></path>
                <path d="M74.571204,165.138955 C74.571204,165.138955 73.4285935,159.473511 73.1508757,155.783831 C72.8731579,152.094152 75.6900101,145.278163 75.6900101,145.278163 C75.6900101,145.278163 79.3796898,153.212958 78.8242542,156.339267 C78.2608837,159.473511 77.3959911,166.844936 77.3959911,166.844936 L74.571204,165.138955 Z" id="Fill-22" sketch:type="MSShapeGroup"></path>
                <path d="M65.7715163,159.187859 C65.7715163,159.187859 65.4937985,155.506114 66.0492341,152.37187 C66.6126046,149.24556 68.9057603,146.420773 68.9057603,146.420773 C68.9057603,146.420773 71.1671769,150.665889 70.8894591,153.522415 C70.6038065,156.371006 68.6201077,161.171557 68.6201077,161.171557 L65.7715163,159.187859 Z" id="Fill-23" sketch:type="MSShapeGroup"></path>
                <path d="M57.7732429,155.101439 C57.7732429,155.101439 56.6306324,152.062413 56.8131327,149.491539 C57.0035677,146.920665 59.2967235,144.59577 59.2967235,144.59577 C59.2967235,144.59577 61.9628147,147.166644 61.9628147,150.665889 C61.9628147,154.173068 60.439334,156.497963 60.439334,156.497963 L57.7732429,155.101439 Z" id="Fill-24" sketch:type="MSShapeGroup"></path>
            </g>
            <path d="M84.8823681,401.36795 L88.3686962,401.504668 L93.3589306,401.504668 L93.3589306,401.778106 L94.1108837,401.641387 L94.52104,401.778106 L98.9643993,401.504668 L107.030806,401.504668 L120.634321,401.641387 L121.181196,401.504668 L121.796431,401.641387 L134.101118,401.778106 L138.886274,401.778106 L144.149946,402.051543 L144.149946,423.926543 L144.013227,424.746856 L144.149946,425.498809 L144.013227,425.908965 L135.263227,425.908965 L134.716352,425.772246 L134.101118,425.908965 L133.827681,425.908965 L133.280806,425.772246 L133.144087,425.908965 L133.007368,425.908965 L131.230024,425.772246 L130.136274,425.908965 L130.136274,425.772246 L129.999556,425.908965 L128.085493,425.772246 L108.124556,425.908965 L107.987837,426.045684 L107.304243,425.908965 L99.2378368,425.908965 L98.4175243,425.635528 L97.5288525,425.772246 L96.8452587,425.157012 C96.8452587,425.293731 96.4578928,425.498808 95.6831493,425.772246 L95.4097118,426.797637 L95.5464306,428.780059 L95.4097118,428.780059 L95.5464306,428.916778 L95.5464306,429.668731 L95.4097118,430.352325 C94.1336638,430.443471 93.4956493,430.625761 93.4956493,430.8992 L93.4956493,431.104278 C94.8628437,431.28657 95.5464306,431.46886 95.5464306,431.651153 L95.5464306,435.957793 L95.4097118,436.504668 L95.5464306,437.119903 L95.2729931,438.418731 L95.6831493,439.512481 L95.8198681,439.512481 L95.8198681,439.375762 L95.6831493,438.692168 L95.8198681,438.55545 L95.9565868,438.55545 L96.70854,438.965606 C97.0731251,438.692167 97.4832773,438.55545 97.9390087,438.55545 L113.456587,438.55545 L122.616743,439.239043 L122.616743,439.102325 C122.616743,438.920032 122.480026,438.828887 122.206587,438.828887 L122.206587,438.55545 L123.368696,438.55545 L124.940962,438.418731 L125.351118,438.692168 L125.487837,438.55545 L131.981977,438.55545 L132.870649,438.692168 L133.280806,438.55545 C134.830293,438.55545 136.835481,439.21625 139.296431,440.537871 C139.43315,441.130322 140.002806,441.745551 141.005415,442.383575 C143.10178,444.2065 144.149946,446.98642 144.149946,450.723418 L144.013227,450.723418 L144.149946,450.860137 L144.149946,451.475371 L144.013227,451.61209 L144.149946,451.748809 L144.149946,452.569121 L144.013227,453.457793 L144.149946,454.141387 L144.149946,454.346465 L144.013227,454.483184 L144.149946,454.619903 L144.013227,456.192168 L144.149946,465.215606 L144.149946,473.965606 L144.013227,475.264434 L144.149946,475.811309 L143.876509,479.0242 L144.013227,480.323028 L144.013227,481.280059 L143.876509,481.895293 L144.013227,482.30545 L143.876509,483.604278 L144.013227,486.475371 L144.013227,488.321075 C144.013227,492.331511 142.30426,495.589942 138.886274,498.096465 C137.427934,499.235794 134.944235,499.80545 131.435102,499.80545 L113.046431,499.80545 L110.722212,499.668731 L110.585493,499.80545 L109.560102,499.668731 L99.2378368,499.668731 L97.255415,499.532012 L96.70854,499.668731 L95.5464306,499.395293 L94.6577587,499.668731 L91.9233837,499.668731 L91.23979,499.80545 C90.1460345,499.623157 88.1408462,499.532012 85.224165,499.532012 L71.8257275,499.532012 L71.6890087,499.668731 L71.55229,499.668731 L71.4155712,498.916778 L71.55229,478.545684 L71.4155712,475.537871 L72.4409618,475.401153 L74.6968212,475.401153 L78.5933056,475.537871 L80.5757275,475.401153 L80.5757275,475.537871 L81.0542431,475.401153 L84.0620556,475.537871 L84.7456493,475.401153 L85.4976025,475.537871 L85.6343212,475.401153 L85.77104,475.401153 L87.6167431,476.016387 C88.4826328,475.788521 89.6447306,475.67459 91.1030712,475.67459 L91.6499462,475.67459 L91.6499462,475.811309 L90.6245556,476.016387 L90.6245556,476.289825 L102.997602,475.67459 L109.286665,475.67459 L110.585493,475.811309 L110.722212,475.67459 L110.858931,475.67459 L114.618696,475.811309 L118.378462,475.811309 C118.560754,475.811309 118.651899,476.061957 118.651899,476.563262 L118.925337,476.563262 C118.925337,475.970811 119.016482,475.67459 119.198774,475.67459 L120.224165,475.67459 L120.360884,475.811309 L120.497602,475.811309 L120.497602,475.537871 L120.634321,475.537871 L120.497602,475.401153 L120.497602,475.264434 L120.77104,473.55545 L120.634321,468.496856 L120.634321,466.651153 L120.497602,464.668731 L120.634321,463.916778 L120.497602,463.096465 L120.634321,462.481231 L119.950727,462.344512 L118.925337,462.344512 C118.925337,461.979927 118.834192,461.797637 118.651899,461.797637 C118.37846,461.797637 118.218957,461.979927 118.173384,462.344512 L117.899946,462.344512 C115.34785,461.979927 113.205944,461.797637 111.474165,461.797637 L110.722212,461.934356 L109.901899,461.797637 L107.577681,461.797637 L106.005415,462.071075 L106.005415,461.934356 L105.868696,462.071075 L105.731977,462.071075 L101.972212,462.344512 L101.835493,462.207793 L101.151899,462.344512 L96.70854,462.344512 L94.3843212,462.481231 L94.2476025,462.344512 L94.1108837,462.344512 L93.0854931,462.481231 L92.5386181,462.344512 L91.1030712,462.481231 L84.8823681,462.481231 C80.7807851,462.481231 78.7300243,462.048292 78.7300243,461.182403 C78.7300243,460.726671 78.1147961,460.453236 76.8843212,460.36209 C75.4259806,460.36209 73.8993031,458.675909 72.3042431,455.303496 L72.1675243,454.756621 L72.3042431,454.756621 C72.5321088,454.847768 73.4891305,456.146583 75.1753368,458.653106 L75.3120556,458.789825 L75.4487743,458.789825 L71.9624462,453.594512 C71.6890073,452.956488 71.55229,452.181756 71.55229,451.270293 C71.5978631,450.814562 71.689008,450.5867 71.8257275,450.5867 L71.6890087,450.449981 L71.6890087,442.520293 L71.8257275,441.084746 L71.4155712,440.948028 L71.4155712,440.264434 L71.55229,440.264434 L71.6890087,440.401153 L71.8257275,440.401153 L71.9624462,430.078887 L71.9624462,426.934356 C71.9624462,426.250759 71.7345839,425.908965 71.2788525,425.908965 L71.4155712,424.199981 L71.4155712,415.723418 L71.2788525,414.834746 L71.4155712,414.287871 L71.2788525,414.287871 L71.6890087,413.535918 L71.2788525,412.989043 L71.4155712,412.852325 L71.4155712,411.963653 C71.4155712,410.961043 71.8485096,409.388794 72.7143993,407.246856 C75.3576417,403.418712 78.5705002,401.504668 82.3530712,401.504668 L82.7632275,401.504668 L83.1733837,401.778106 L83.7886181,401.778106 L83.7886181,401.504668 L84.8823681,401.36795 Z M173.078391,401.36795 L173.078391,401.641387 L173.21511,401.504668 L173.898704,401.641387 L176.017844,401.504668 L200.55886,401.641387 L209.650657,401.641387 L212.043235,401.778106 L212.043235,401.641387 L212.179954,401.778106 L213.888938,401.641387 L217.170188,401.778106 L219.699485,401.641387 L219.699485,402.051543 L219.562766,402.051543 C217.603121,402.324982 216.623313,402.621203 216.623313,402.940215 L218.742454,403.213653 C230.044593,402.256617 237.176684,401.778106 240.138938,401.778106 L240.412375,402.803496 L240.275657,406.358184 L240.275657,412.30545 L240.138938,414.561309 L240.275657,414.698028 L240.275657,414.834746 L240.138938,418.526153 L240.138938,425.772246 C240.138938,426.000112 239.911076,426.13683 239.455344,426.182403 L239.113547,426.182403 L239.113547,426.045684 L237.74636,426.182403 L236.720969,426.182403 L233.508079,425.908965 L228.928,426.045684 L228.517844,426.045684 L228.381125,425.908965 L228.244407,426.045684 L224.689719,426.045684 L223.117454,425.908965 L222.707297,426.045684 L220.588157,425.908965 L220.451438,426.045684 L220.314719,426.045684 L219.015891,425.635528 L218.332297,426.045684 L217.580344,425.908965 L217.033469,426.045684 L216.144797,425.772246 L216.008079,425.772246 L215.597922,426.045684 L215.734641,426.182403 L215.734641,426.729278 C215.734641,426.91157 215.461206,427.002715 214.914329,427.002715 L214.914329,427.207793 C214.914329,427.390086 215.187763,427.481231 215.734641,427.481231 L215.734641,428.164825 L215.461204,428.574981 L215.734641,428.574981 L215.734641,428.848418 L215.461204,430.010528 L215.734641,430.283965 L215.734641,431.719512 L215.597922,436.641387 L215.597922,436.983184 L215.734641,436.983184 L215.597922,438.350371 L215.597922,444.776153 L215.461204,445.596465 L215.597922,445.733184 L215.461204,449.561309 L215.461204,480.938262 L215.597922,505.615996 L215.734641,507.735137 L215.597922,507.871856 L215.597922,508.008575 L215.734641,508.55545 L215.597922,508.55545 L215.734641,508.692168 L215.734641,521.201934 L215.597922,522.022246 L215.734641,522.7742 L215.734641,523.594512 L215.597922,523.594512 C213.410411,521.817159 209.400035,517.852355 203.566672,511.699981 C203.156514,511.608834 199.989228,508.532693 194.064719,502.471465 C192.651952,501.104271 191.945579,500.26118 191.945579,499.942168 L192.082297,499.463653 L191.945579,499.463653 C191.53542,499.463653 191.239199,498.848424 191.056907,497.61795 L191.193625,496.934356 L191.193625,495.977325 L191.056907,495.772246 C191.239199,495.225369 191.398703,494.951934 191.535422,494.951934 L191.330344,488.594512 L191.330344,485.723418 L191.535422,484.287871 L191.330344,483.057403 L191.330344,480.664825 L191.535422,478.340606 L191.330344,477.93045 L191.535422,477.793731 L191.330344,477.110137 L191.535422,476.221465 L191.330344,474.785918 L191.535422,471.846465 L191.330344,467.744903 L191.330344,467.608184 L191.535422,466.719512 L191.330344,466.582793 L191.330344,466.446075 L191.535422,465.762481 L191.330344,463.780059 C191.467064,459.313891 191.67214,456.852978 191.945579,456.397246 L191.80886,456.260528 L191.945579,454.824981 L191.945579,454.004668 C191.945579,453.776803 191.740503,453.662871 191.330344,453.662871 L191.330344,452.432403 C191.375917,450.336038 191.489848,449.287871 191.672141,449.287871 C191.489848,449.287871 191.330345,448.194132 191.193625,446.006621 L191.056907,446.006621 C191.239199,445.55089 191.330344,444.707799 191.330344,443.477325 L191.330344,437.256621 L191.535422,435.000762 L191.330344,434.864043 L191.330344,434.658965 L191.535422,434.248809 L191.330344,433.155059 L191.535422,431.99295 L191.330344,431.856231 L191.330344,431.719512 L191.535422,431.582793 L191.535422,431.446075 L191.330344,431.035918 L191.80886,427.344512 L191.672141,426.592559 L192.492454,426.45584 L192.492454,426.182403 C192.127868,426.182403 191.945579,426.091258 191.945579,425.908965 L191.672141,425.635528 L191.330344,425.635528 L190.64675,426.182403 L189.074485,426.045684 L188.937766,426.182403 L188.801047,426.182403 L186.408469,425.908965 L185.109641,425.908965 L180.324485,426.045684 L175.607688,425.908965 L174.787375,425.908965 L173.898704,425.772246 L173.761985,425.908965 L172.804954,425.772246 L169.93386,425.772246 L167.814719,425.635528 L167.814719,425.498809 L167.541282,414.971465 L167.541282,402.666778 C167.541282,401.937607 167.677999,401.550241 167.951438,401.504668 L171.642844,401.504668 L173.078391,401.36795 Z M263.461914,401.778106 L273.032227,401.778106 L273.579102,401.914825 L273.989258,401.778106 L275.014648,401.914825 L276.245117,401.778106 L276.245117,401.914825 L276.450195,401.778106 L278.569336,401.914825 L281.508789,401.914825 L282.124023,402.051543 L282.670898,401.914825 L282.807617,402.051543 L282.944336,401.914825 L283.422852,401.914825 L283.969727,402.051543 L284.926758,401.914825 L293.608398,401.914825 L293.745117,402.051543 L293.950195,401.914825 L294.086914,401.914825 L309.87793,401.778106 L310.97168,401.778106 L312.954102,401.914825 L314.389648,401.778106 L315.004883,401.914825 L315.551758,401.778106 L316.37207,401.914825 L317.807617,401.778106 L317.944336,401.778106 L318.55957,401.914825 L318.696289,401.778106 L319.106445,401.778106 L319.106445,401.914825 L320.81543,401.778106 L322.524414,401.778106 L322.524414,402.051543 L324.370117,401.914825 L324.780273,402.051543 L326.079102,401.778106 L328.950195,401.914825 L336.606445,401.914825 L336.606445,404.512481 C336.013994,406.517699 335.717773,409.297619 335.717773,412.852325 L335.717773,425.840606 L334.350586,425.977325 L330.043945,425.977325 L324.09668,426.114043 L324.09668,425.977325 L323.959961,426.114043 L323.823242,426.114043 C322.866206,426.06847 322.387695,425.977325 322.387695,425.840606 L321.977539,426.114043 L321.225586,425.977325 L320.268555,426.114043 C319.584958,426.022897 319.243164,425.931752 319.243164,425.840606 L318.081055,426.114043 L317.53418,425.840606 L317.397461,425.977325 L313.979492,425.977325 L313.842773,425.840606 L313.706055,425.977325 L311.99707,425.977325 L311.860352,425.840606 L311.723633,425.977325 L309.262695,425.977325 L308.442383,425.840606 L307.69043,425.977325 L306.870117,425.977325 L306.733398,425.840606 L306.59668,425.977325 L303.999023,425.977325 L303.862305,425.840606 L303.725586,425.977325 L303.178711,425.977325 L303.041992,425.840606 L302.905273,425.977325 L301.743164,425.977325 L301.606445,425.840606 L301.469727,425.977325 L300.03418,425.977325 L299.897461,425.840606 L299.760742,425.977325 L299.624023,425.977325 L296.206055,425.703887 L293.608398,425.840606 L288.344727,425.840606 C288.344727,425.430447 288.253582,425.225371 288.071289,425.225371 C287.888996,425.225371 287.797852,425.384875 287.797852,425.703887 L287.661133,425.840606 L285.268555,425.840606 L284.65332,426.387481 L286.772461,426.250762 L287.250977,426.250762 L287.387695,427.276153 L286.977539,427.412871 L286.977539,427.686309 L287.250977,427.686309 L287.250977,427.959746 C287.250977,428.142039 287.0459,428.233184 286.635742,428.233184 L286.635742,428.369903 C287.0459,428.369903 287.250977,428.50662 287.250977,428.780059 L287.114258,429.258575 L287.250977,429.395293 L287.387695,429.395293 L287.250977,435.342559 L287.250977,438.350371 L287.524414,439.033965 L287.661133,439.033965 L288.071289,438.760528 L288.208008,438.760528 C288.891605,438.806101 289.233398,438.897246 289.233398,439.033965 C290.600593,438.851673 292.446277,438.760528 294.770508,438.760528 L294.907227,438.897246 L295.043945,438.760528 L319.243164,438.897246 L323.959961,438.897246 L324.233398,439.170684 L324.233398,443.614043 L323.686523,447.30545 L323.823242,448.877715 L323.686523,451.133575 C323.868816,452.9565 323.959961,455.235123 323.959961,457.969512 L323.823242,463.096465 L323.481445,463.096465 L323.481445,463.233184 L318.696289,462.959746 L316.850586,462.959746 L315.688477,462.823028 L314.116211,462.959746 L303.31543,462.959746 L302.15332,463.096465 L301.05957,462.959746 L297.368164,462.959746 L296.069336,462.823028 L295.65918,462.959746 L295.454102,462.823028 L294.633789,462.959746 L292.924805,462.823028 L291.625977,462.959746 L290.532227,462.54959 L290.532227,462.823028 L290.395508,462.823028 L289.780273,462.686309 L288.823242,462.959746 C288.50423,462.777454 288.344727,462.207798 288.344727,461.250762 C287.433264,462.66353 286.977539,464.076276 286.977539,465.489043 L287.114258,465.625762 C286.521807,465.716908 286.225586,465.876412 286.225586,466.104278 L287.114258,466.104278 L287.114258,466.651153 L286.977539,467.539825 L287.250977,468.0867 L287.114258,470.342559 C287.114258,470.570425 286.772464,470.707142 286.088867,470.752715 L286.088867,470.957793 L287.114258,471.778106 L287.114258,473.623809 L286.088867,473.760528 L286.088867,474.033965 L287.114258,474.033965 L287.114258,475.196075 C287.114258,475.42394 287.478838,475.60623 288.208008,475.74295 L288.344727,475.74295 L288.208008,475.606231 L288.208008,475.196075 L299.624023,475.196075 L299.624023,475.606231 L300.03418,475.196075 L302.016602,475.332793 L302.15332,475.196075 L302.290039,475.196075 L302.905273,475.332793 L303.999023,475.196075 L304.887695,475.332793 L305.297852,475.196075 L306.323242,475.332793 L306.459961,475.196075 L306.59668,475.196075 L306.733398,475.332793 L306.870117,475.332793 L307.553711,475.196075 L310.698242,475.332793 L324.506836,475.332793 L325.395508,475.196075 L326.079102,475.332793 L329.223633,475.332793 L331.479492,475.469512 L331.616211,475.332793 L331.75293,475.332793 L333.325195,475.469512 L334.624023,475.469512 C335.262047,475.469512 335.581055,475.378367 335.581055,475.196075 C336.173506,475.378367 336.469727,475.560657 336.469727,475.74295 L336.469727,477.588653 L336.333008,479.571075 L336.469727,480.186309 L336.333008,480.186309 L336.469727,480.323028 L336.469727,480.459746 L336.333008,481.758575 L336.469727,482.30545 L336.333008,482.442168 L336.469727,482.852325 L336.333008,485.996856 L336.469727,489.688262 L336.333008,490.440215 L336.469727,491.123809 L336.333008,491.123809 L336.469727,491.533965 L336.333008,491.670684 L336.469727,492.1492 L336.333008,495.36209 L336.469727,497.412871 L336.333008,497.54959 L336.333008,497.686309 L336.469727,498.096465 L336.333008,499.80545 L332.915039,499.80545 L332.026367,499.668731 L331.889648,499.80545 L330.180664,499.668731 L325.942383,499.668731 L321.772461,499.258575 L313.432617,499.395293 L312.817383,499.532012 L312.133789,499.258575 C311.723631,499.440867 311.108403,499.532012 310.288086,499.532012 L306.733398,499.532012 L305.981445,499.395293 L305.161133,499.532012 L296.479492,499.532012 L294.907227,499.668731 L294.360352,499.532012 L294.223633,499.668731 L293.47168,499.532012 L292.651367,499.668731 L292.37793,499.668731 L292.37793,499.532012 L290.668945,499.668731 L289.09668,499.668731 L287.387695,499.532012 L285.678711,499.668731 L284.243164,499.668731 L282.807617,499.532012 L282.124023,499.668731 L277.543945,499.532012 L276.723633,499.668731 L275.561523,499.532012 L274.741211,499.668731 L273.442383,499.532012 L272.553711,499.532012 L269.135742,499.668731 L268.452148,499.395293 L268.588867,498.64334 L268.178711,498.64334 C268.178711,499.326937 267.472338,499.668731 266.05957,499.668731 L263.325195,499.532012 L263.325195,499.258575 L263.188477,497.54959 L263.461914,495.36209 L263.325195,495.225371 L263.461914,494.541778 L263.461914,492.1492 L263.598633,490.098418 L263.461914,489.551543 L263.598633,489.414825 L263.461914,489.004668 L263.598633,484.834746 L263.598633,483.604278 C263.689779,482.966254 263.826496,482.62446 264.008789,482.578887 C263.73535,481.530705 263.598633,479.206509 263.598633,475.606231 L263.598633,437.803496 C263.872072,435.433693 264.077148,432.015758 264.213867,427.54959 L264.008789,426.797637 L264.213867,426.387481 L264.008789,425.840606 L264.213867,425.840606 C263.803709,424.929143 263.598633,424.154411 263.598633,423.516387 L263.598633,422.696075 L263.87207,422.696075 L263.87207,422.969512 L264.008789,422.969512 L264.008789,422.422637 C264.008789,421.921332 263.872072,421.670684 263.598633,421.670684 L263.598633,421.123809 L263.735352,420.98709 L263.598633,420.850371 L263.598633,420.303496 L264.008789,420.098418 L263.735352,419.278106 L263.87207,417.979278 L263.598633,412.442168 L263.87207,408.614043 L263.87207,408.340606 L263.735352,408.340606 L263.598633,409.297637 L263.325195,409.297637 L263.325195,404.6492 L263.461914,401.778106 Z M263.735352,407.588653 L263.735352,407.86209 L263.87207,407.86209 C264.191082,404.763116 264.532876,403.213653 264.897461,403.213653 C265.216473,403.213653 265.694984,404.626399 266.333008,407.451934 L266.333008,407.588653 L266.469727,407.588653 L266.469727,407.315215 C265.877276,404.307388 265.398765,402.803496 265.03418,402.803496 L264.897461,402.803496 C264.487303,402.803496 264.099937,404.398533 263.735352,407.588653 L263.735352,407.588653 Z M266.606445,408.477325 L266.606445,409.0242 L266.743164,409.0242 L266.743164,408.477325 L266.606445,408.477325 Z M266.743164,409.160918 L266.743164,409.571075 L266.879883,410.186309 L267.016602,410.186309 L267.016602,410.04959 L266.879883,409.160918 L266.743164,409.160918 Z M369.773171,401.573028 L370.320046,401.573028 L370.593484,401.846465 L370.730203,401.709746 L370.935281,401.709746 L374.28489,401.846465 L377.087625,401.709746 L377.497781,401.846465 L377.497781,402.119903 L375.105203,402.39334 L375.105203,402.530059 L375.37864,402.530059 C377.247139,402.347766 378.614313,402.119904 379.480203,401.846465 L382.829812,401.846465 L382.966531,401.983184 L383.10325,401.846465 L389.255593,401.846465 L394.792703,401.709746 L396.296609,401.846465 L398.005593,401.709746 L400.261453,401.846465 L402.038796,401.709746 L402.448953,401.846465 L403.747781,401.709746 L405.730203,401.846465 L406.823953,401.709746 L407.644265,401.846465 L408.943093,401.709746 L408.943093,401.846465 L409.079812,401.709746 L409.216531,401.709746 L409.626687,401.846465 L409.900125,401.846465 L409.900125,401.709746 L419.197,401.983184 C419.424865,401.983184 419.743872,402.165474 420.154031,402.530059 C420.29075,402.165474 420.427468,401.983184 420.564187,401.983184 L421.31614,401.983184 C423.139066,401.983184 424.756888,402.689557 426.169656,404.102325 L426.169656,403.828887 C426.989972,403.828887 428.174856,404.945412 429.724343,407.178496 C430.088928,407.178496 430.590226,409.001395 431.22825,412.647246 L431.091531,412.647246 L431.638406,416.61209 L431.501687,417.432403 L431.638406,417.979278 L431.501687,420.235137 L431.501687,423.584746 L431.638406,424.883575 L431.501687,425.020293 L431.501687,425.43045 L431.638406,425.43045 L431.501687,427.139434 L431.501687,432.198028 L431.364968,432.744903 L431.501687,433.291778 L431.501687,434.864043 L431.364968,435.410918 L431.501687,435.821075 C431.456114,437.416135 431.319397,438.213653 431.091531,438.213653 L429.724343,438.213653 L427.058328,438.076934 L424.802468,438.213653 C419.060252,438.122506 415.118234,437.940217 412.976296,437.666778 L412.839578,437.803496 L412.702859,437.803496 L410.925515,437.666778 L410.925515,437.940215 L410.310281,437.940215 L410.310281,437.666778 L409.900125,437.324981 L409.216531,437.530059 L409.079812,437.530059 C408.441788,437.530059 408.122781,437.188265 408.122781,436.504668 L408.122781,428.780059 C408.122781,428.233181 408.305071,427.959746 408.669656,427.959746 L408.669656,427.823028 C408.669656,427.640735 408.487366,427.54959 408.122781,427.54959 L408.122781,426.865996 L409.35325,426.5242 L409.35325,426.387481 L409.216531,426.387481 L408.396218,426.5242 L408.2595,426.5242 L408.396218,425.977325 L408.122781,425.293731 L407.986062,425.293731 L407.507546,425.703887 L407.234109,425.703887 L407.234109,425.567168 L406.277078,425.703887 L401.62864,425.703887 L401.491921,425.567168 L401.355203,425.703887 L400.261453,425.703887 L395.749734,425.567168 L395.749734,425.157012 L395.476296,425.157012 C395.476296,425.430451 395.385152,425.567168 395.202859,425.567168 L386.452859,425.567168 L386.179421,425.293731 L386.179421,424.473418 L386.31614,423.858184 L386.179421,423.311309 C385.905983,423.311309 385.769265,423.926537 385.769265,425.157012 L385.769265,425.567168 L384.402078,425.567168 L383.376687,425.293731 C383.103248,425.749462 382.829813,425.977325 382.556375,425.977325 L382.693093,426.660918 L382.693093,427.823028 L382.829812,429.190215 L382.693093,429.190215 L382.829812,429.326934 L382.829812,429.532012 L382.693093,429.942168 L382.829812,430.352325 L382.693093,431.446075 L382.829812,434.248809 C382.282934,438.806123 382.0095,444.138101 382.0095,450.244903 L381.872781,451.270293 L382.282937,450.996856 L382.419656,450.996856 L382.419656,452.364043 L382.146218,452.364043 L382.0095,454.483184 L382.0095,455.166778 L382.146218,460.772246 L382.282937,460.635528 L382.556375,460.635528 L382.556375,461.660918 L382.146218,461.660918 C382.419657,464.486453 382.556375,466.947366 382.556375,469.043731 L382.556375,472.871856 L382.419656,473.418731 L382.556375,473.965606 L382.556375,474.102325 L382.419656,475.401153 L382.556375,475.811309 L383.239968,475.67459 L383.650125,475.948028 L383.786843,475.811309 L387.068093,475.811309 C387.068093,476.175894 387.159238,476.358184 387.341531,476.358184 L387.47825,475.811309 L406.413796,476.084746 L406.550515,476.221465 L406.687234,476.221465 L407.986062,475.948028 L407.986062,475.811309 L407.644265,475.811309 L407.644265,475.537871 C407.917704,475.08214 408.30507,474.854278 408.806375,474.854278 L409.489968,474.854278 L409.489968,474.512481 C408.943091,474.466908 408.669656,474.375763 408.669656,474.239043 L408.532937,474.375762 L407.986062,474.375762 C407.575904,474.239043 407.370828,473.920035 407.370828,473.418731 L407.370828,472.4617 L408.122781,468.0867 L407.370828,468.0867 L407.370828,465.283965 C407.872132,465.283965 408.122781,465.19282 408.122781,465.010528 L408.122781,464.73709 L407.370828,464.600371 L407.370828,464.053496 C407.370828,463.825631 407.507545,463.7117 407.780984,463.7117 L407.780984,463.574981 L407.644265,463.438262 L407.780984,463.301543 L407.780984,463.164825 L407.234109,462.61795 C406.96067,462.61795 406.59609,462.800239 406.140359,463.164825 L405.866921,463.164825 L405.866921,463.028106 L405.730203,463.164825 L405.593484,463.164825 C403.907278,463.119251 403.064187,463.028106 403.064187,462.891387 L403.064187,462.61795 L402.927468,462.61795 L402.927468,463.028106 L401.765359,463.028106 C401.537493,463.028106 401.400776,462.845816 401.355203,462.481231 L401.218484,462.344512 L401.081765,462.344512 L401.355203,463.028106 L395.476296,463.028106 L395.06614,462.61795 L395.202859,461.660918 L395.202859,459.26834 L395.339578,458.721465 L395.06614,457.285918 L395.202859,456.875762 L395.06614,455.303496 L395.06614,453.184356 L395.339578,452.7742 L395.339578,452.637481 L395.06614,452.227325 L395.06614,451.68045 C395.06614,451.452584 395.567437,451.224721 396.570046,450.996856 L397.25364,451.133575 L398.41575,451.133575 L399.099343,450.996856 L405.114968,451.68045 L405.114968,451.407012 L404.704812,451.407012 L404.704812,451.133575 L430.271218,451.133575 C431.091535,451.133575 431.501687,451.543727 431.501687,452.364043 L431.364968,456.739043 L431.364968,461.045684 L431.22825,465.147246 L431.364968,465.283965 L431.22825,466.719512 L431.22825,486.065215 L431.091531,489.824981 C430.909238,489.824981 430.726948,490.121202 430.544656,490.713653 L431.091531,490.850371 C429.76991,494.31393 428.744529,496.182401 428.015359,496.45584 L427.87864,496.45584 L427.87864,496.319121 L429.314187,490.713653 L429.109109,490.576934 L428.97239,490.576934 L427.058328,497.276153 C425.007536,498.962359 422.933989,499.80545 420.837625,499.80545 L420.017312,499.80545 C420.017312,499.395291 419.835022,499.076284 419.470437,498.848418 C419.196998,498.848418 419.060281,499.167426 419.060281,499.80545 L413.113015,499.80545 L412.56614,499.668731 L412.429421,499.80545 L412.292703,499.80545 L388.982156,499.532012 L388.572,499.395293 L387.888406,499.532012 L387.47825,499.532012 L387.341531,499.395293 L387.204812,499.532012 L378.454812,499.395293 L371.345437,499.395293 L371.072,499.668731 L370.730203,499.668731 L370.730203,499.532012 L369.363015,499.668731 L369.226296,499.668731 C368.26926,499.668731 366.765369,499.19022 364.714578,498.233184 C363.256237,497.321721 362.185284,496.341913 361.501687,495.293731 C361.911845,495.157011 362.230853,494.883577 362.458718,494.473418 L362.458718,494.3367 C362.002987,494.792431 361.592835,495.020293 361.22825,495.020293 L361.091531,495.020293 C360.225641,493.561953 359.792703,492.627717 359.792703,492.217559 L359.929421,491.397246 C359.792702,489.71104 359.56484,488.86795 359.245828,488.86795 C359.017962,488.86795 358.881245,488.548942 358.835671,487.910918 L359.245828,487.910918 L359.245828,487.70584 L358.835671,487.158965 L358.835671,466.99295 L358.97239,464.326934 L358.835671,464.190215 L358.97239,463.574981 L359.109109,453.184356 L359.109109,448.194121 L359.245828,446.621856 L359.109109,446.485137 L359.245828,445.801543 L359.245828,440.74295 C359.245828,437.370537 359.382545,435.684356 359.655984,435.684356 L359.519265,435.547637 L359.519265,435.410918 L359.655984,433.428496 L359.245828,433.428496 L359.382546,431.99295 L359.382546,430.489043 L360.06614,422.08084 L359.792703,422.08084 L359.519265,424.883575 L359.519265,425.157012 L359.109109,425.157012 L359.109109,416.748809 L359.519265,416.748809 C359.382546,415.518334 359.245828,414.903106 359.109109,414.903106 L359.245828,414.356231 L359.109109,413.057403 C359.109109,410.231868 360.613,407.383589 363.620828,404.512481 C366.172924,402.552836 368.223685,401.573028 369.773171,401.573028 L369.773171,401.573028 Z M371.755593,402.530059 L371.755593,402.666778 L372.849343,402.803496 L374.831765,402.530059 L374.831765,402.39334 L374.421609,402.39334 L371.755593,402.530059 Z M368.269265,402.803496 L370.935281,402.803496 L370.935281,402.666778 L369.226296,402.530059 L368.542703,402.530059 L368.269265,402.803496 Z M364.714578,405.67459 L364.714578,406.221465 L364.988015,406.221465 L364.988015,405.948028 L364.714578,405.67459 Z M405.251687,451.543731 L405.251687,451.68045 L405.730203,451.817168 L405.866921,451.68045 L406.00364,451.68045 L406.140359,451.817168 L406.413796,451.817168 L406.413796,451.68045 L405.730203,451.543731 L405.251687,451.543731 Z M508.008257,401.162871 L508.623491,401.29959 L508.623491,401.162871 L508.76021,401.29959 L512.178179,401.29959 L514.22896,401.436309 L515.937944,401.162871 L515.937944,401.436309 L517.373491,401.162871 C517.829223,401.162871 518.057085,401.345161 518.057085,401.709746 C518.603963,402.028758 520.290144,402.461697 523.115679,403.008575 C524.163861,403.555452 524.687944,404.193467 524.687944,404.922637 C525.417115,406.517697 525.98677,407.474719 526.396929,407.793731 L526.738726,407.793731 L526.875444,407.657012 C527.422322,407.657012 527.695757,408.933041 527.695757,411.485137 L527.832476,411.621856 C527.832476,412.214307 528.037552,412.510528 528.44771,412.510528 L528.44771,413.057403 L528.310991,413.194121 L528.44771,413.3992 L528.44771,413.535918 L528.584429,415.108184 L528.44771,419.9617 L528.44771,430.8992 L528.310991,432.061309 L528.44771,433.155059 L528.44771,437.051543 L528.310991,438.48709 L528.44771,439.922637 L528.310991,441.631621 L528.44771,442.520293 L528.310991,446.416778 L528.44771,447.510528 L528.310991,449.834746 L528.310991,454.141387 L528.584429,486.748809 L528.721148,488.731231 C528.083124,492.012497 526.875453,494.564555 525.098101,496.387481 C523.138455,498.301553 520.039528,499.258575 515.801226,499.258575 L511.357866,499.395293 L499.600054,499.053496 L491.807085,499.053496 L487.637163,499.258575 L487.500444,499.053496 L486.064898,499.258575 C472.803112,499.304148 466.149533,499.395293 466.10396,499.532012 L466.10396,499.80545 L465.557085,499.80545 C462.913843,499.80545 460.179495,498.278772 457.35396,495.225371 C455.804473,493.402446 455.029741,490.622526 455.029741,486.885528 L454.893023,482.30545 L455.029741,481.280059 C454.756302,480.824327 454.619585,475.788571 454.619585,466.172637 L454.756304,426.592559 L454.619585,421.397246 L454.756304,421.397246 L454.619585,421.260528 L454.756304,420.576934 L454.482866,415.655059 L454.482866,413.809356 C454.482866,408.249432 456.87542,404.466918 461.660601,402.4617 L461.934038,402.4617 L462.412554,402.735137 L464.258257,402.598418 L464.258257,402.324981 L463.369585,402.324981 L463.369585,402.051543 C464.554487,401.641385 465.944447,401.436309 467.539507,401.436309 L468.701616,401.436309 L468.701616,401.573028 L468.564898,401.709746 L468.564898,401.914825 L468.701616,401.914825 L469.248491,401.709746 L469.863726,401.914825 C471.003054,401.595813 472.279083,401.436309 473.691851,401.436309 L487.773882,401.436309 L489.551226,401.29959 L489.551226,401.436309 L489.687944,401.29959 L491.26021,401.29959 L491.396929,401.436309 L491.533648,401.29959 L495.430132,401.29959 L495.566851,401.436309 L495.703569,401.29959 L507.187944,401.29959 L508.008257,401.162871 Z M466.10396,402.188262 L466.10396,402.324981 L466.719194,402.324981 L466.719194,402.051543 L466.514116,402.051543 L466.10396,402.188262 Z M464.531694,402.324981 L464.531694,402.4617 L464.941851,402.4617 L465.830523,402.324981 L465.830523,402.188262 L465.557085,402.188262 L464.531694,402.324981 Z M487.773882,425.840606 L487.090288,425.703887 L486.611773,425.840606 L485.79146,425.703887 L485.654741,425.840606 L485.518023,425.840606 L485.381304,425.703887 L485.176226,425.703887 L485.039507,425.840606 L484.082476,425.703887 L483.330523,425.703887 L481.621538,425.840606 L481.621538,425.703887 L481.211382,425.840606 L478.887163,425.703887 L478.887163,427.276153 L478.750444,427.891387 L479.023882,428.574981 L478.887163,432.198028 L479.160601,438.48709 L479.023882,438.48709 L479.160601,438.623809 L479.160601,444.502715 L479.023882,444.639434 L479.160601,444.844512 C478.796016,447.71562 478.613726,450.244892 478.613726,452.432403 L478.613726,454.688262 L479.160601,466.92459 L479.023882,467.061309 L479.023882,467.198028 L479.160601,468.0867 L479.160601,470.342559 L479.023882,470.547637 L479.160601,470.684356 L479.160601,470.957793 L479.023882,471.983184 L479.160601,473.213653 C479.160601,474.079542 479.069456,474.512481 478.887163,474.512481 L479.023882,474.6492 L479.023882,475.264434 L478.887163,476.289825 L481.894976,475.948028 L482.305132,476.084746 L482.51021,475.948028 L482.920366,476.084746 L483.330523,478.272246 L483.467241,478.272246 L483.467241,476.084746 L495.088335,475.811309 L495.840288,475.67459 L496.523882,475.811309 L500.283648,475.67459 L501.035601,475.811309 L502.471148,475.67459 L503.564898,475.67459 L504.180132,476.084746 L504.316851,476.084746 L504.453569,475.67459 L504.043413,473.965606 L504.316851,472.530059 L504.180132,469.658965 L504.180132,469.522246 L504.453569,469.522246 L504.590288,471.231231 L504.727007,471.231231 L504.727007,470.684356 C504.362422,466.081468 504.180132,462.777465 504.180132,460.772246 L504.180132,452.569121 L504.316851,452.432403 L504.180132,452.295684 L504.316851,451.543731 L504.180132,448.125762 L504.180132,444.365996 L504.316851,443.819121 L504.180132,443.682403 L504.316851,440.537871 L504.316851,433.291778 L504.590288,433.291778 L505.000444,436.504668 L505.137163,436.504668 L505.137163,436.026153 C504.954871,432.881606 504.635863,431.309356 504.180132,431.309356 L504.316851,428.848418 L504.316851,427.139434 L504.727007,426.592559 L504.727007,426.45584 L504.453569,426.45584 L504.453569,425.977325 C504.453569,425.703886 504.795363,425.567168 505.47896,425.567168 L505.47896,425.43045 C504.74979,425.43045 504.271279,425.339305 504.043413,425.157012 C504.043413,425.476024 503.405399,425.658314 502.129351,425.703887 L497.959429,425.703887 C497.959429,425.248156 497.868284,425.020293 497.685991,425.020293 L487.773882,425.840606 Z M505.137163,436.641387 L505.137163,437.188262 L505.342241,437.188262 L505.342241,436.641387 L505.137163,436.641387 Z M505.137163,437.803496 L505.137163,437.940215 L505.47896,440.537871 L505.615679,440.537871 L505.615679,439.239043 L505.47896,437.803496 L505.137163,437.803496 Z M505.615679,440.67459 L505.615679,441.358184 L505.752398,441.358184 L505.752398,440.67459 L505.615679,440.67459 Z M505.615679,441.631621 L505.615679,442.246856 L505.752398,442.657012 L505.889116,442.657012 L505.889116,442.520293 L505.752398,441.631621 L505.615679,441.631621 Z M505.889116,444.092559 L505.752398,444.502715 L505.889116,444.639434 L506.025835,444.639434 L506.025835,444.092559 L505.889116,444.092559 Z M504.727007,471.504668 L504.727007,472.119903 L504.863726,472.119903 L504.863726,471.504668 L504.727007,471.504668 Z" id="STEGO" sketch:type="MSShapeGroup"></path>
        </g>
    </g>
</svg>