<?xml version="1.0" encoding="UTF-8" standalone="no"?>
<svg width="600px" height="600px" viewBox="0 0 600 600" version="1.1" xmlns="http://www.w3.org/2000/svg" xmlns:xlink="http://www.w3.org/1999/xlink" xmlns:sketch="http://www.bohemiancoding.com/sketch/ns">
    <!-- Generator: Sketch 3.4.3 (16044) - http://www.bohemiancoding.com/sketch -->
    <title>stego-logo</title>
    <desc>Created with Sketch.</desc>
    <defs></defs>
    <g id="Page-1" stroke="none" stroke-width="1" fill="none" fill-rule="evenodd" sketch:type="MSPage">
        <g id="stego-logo" sketch:type="MSArtboardGroup" fill="#000000">
            <g id="Page-1" sketch:type="MSLayerGroup" transform="translate(26.249570, 71.705864)">
                <path d="M541.518024,284.319577 C541.518024,284.319577 503.51829,283.978381 457.242566,254.627574 C416.82272,228.990251 389.828547,116.601813 296.745466,84.4896978 C203.67032,52.385517 125.806176,168.773091 95.3127583,168.773091 C64.8114061,168.773091 69.6119571,151.911651 43.9508299,151.911651 C5.42739982,151.911651 0.618914015,168.773091 10.25969,173.573642 C24.6692779,180.794306 38.5551692,168.146242 60.0029203,182.405069 C86.1639396,205.098583 121.814974,216.905558 137.867064,224.93557 C153.919155,232.957648 201.250207,244.177449 220.531759,244.177449 C239.781572,244.177449 325.667794,222.515458 346.52837,192.823455 C368.190361,205.654018 401.357804,246.597561 425.971538,264.23661 C462.884205,290.707087 541.518024,284.287838 541.518024,284.287838 L541.518024,284.319577 Z" id="Fill-1" sketch:type="MSShapeGroup"></path>
                <path d="M170.75679,229.736121 C170.75679,229.736121 172.367553,296.348726 165.948304,301.958626 C159.529055,307.568526 144.286313,309.980704 140.255438,301.149277 C136.256301,292.31785 151.475238,220.095345 151.475238,220.095345 L170.75679,229.736121 Z" id="Fill-2" sketch:type="MSShapeGroup"></path>
                <path d="M103.334836,205.685758 C103.334836,205.685758 119.394861,227.347748 117.784098,240.987661 C116.173335,254.627574 99.0262424,265.291938 99.311895,293.960353 C99.3991778,303.720151 117.315945,302.418844 122.584649,296.380465 C126.679003,291.667197 120.973886,281.129789 124.195412,273.909126 C127.424874,266.680527 150.665889,245.819951 150.665889,245.819951 L156.275789,214.517185 L103.334836,205.685758 Z" id="Fill-3" sketch:type="MSShapeGroup"></path>
                <path d="M262.221172,231.346885 C262.221172,231.346885 300.744603,269.068901 299.943188,281.09805 C299.133839,293.119264 291.571979,294.111114 294.333288,301.149277 C296.689922,307.195591 319.216805,306.759177 325.636055,301.149277 C332.055304,295.539377 316.804628,221.706109 305.584828,216.06447 C294.365027,210.454569 262.252912,231.315146 262.252912,231.315146 L262.221172,231.346885 Z" id="Fill-4" sketch:type="MSShapeGroup"></path>
                <path d="M317.606042,209.684894 C317.606042,209.684894 350.527507,236.155371 356.137407,248.208324 C361.747307,260.237474 372.189497,276.289564 368.96797,282.708813 C365.746444,289.128063 352.106531,304.370804 344.076518,297.15014 C336.054441,289.929477 342.465755,285.93034 341.664341,277.098913 C340.854992,268.267486 304.743739,248.208324 304.743739,248.208324 L296.721661,216.096209 L317.606042,209.684894 Z" id="Fill-5" sketch:type="MSShapeGroup"></path>
                <path d="M517.777117,282.613596 C520.474947,275.765868 527.013219,268.267486 538.756715,259.928017 C529.274635,263.213022 519.546576,265.291938 511.516564,275.829346 C513.03211,266.252048 516.102875,256.055837 525.124737,243.471252 C510.30254,253.572246 507.731667,265.41096 502.994594,276.940217 L517.777117,282.613596 Z" id="Fill-6" sketch:type="MSShapeGroup"></path>
                <path d="M492.235012,274.647062 C500.479264,259.340842 513.682763,247.343432 526.299087,234.909608 C513.03211,244.026687 497.940129,250.041262 488.854789,266.125092 C485.260327,256.238337 482.411736,242.693642 480.332819,225.276767 C479.563144,243.312556 476.920857,269.600532 480.332819,269.537054 L492.235012,274.647062 Z" id="Fill-7" sketch:type="MSShapeGroup"></path>
                <path d="M466.692906,262.189433 C466.692906,262.189433 473.51683,261.633998 475.222811,257.6666 C476.920857,253.699203 475.222811,240.05929 475.222811,240.05929 C475.222811,240.05929 464.99486,243.471252 463.320619,246.875279 C461.614638,250.287241 461.614638,258.777471 461.614638,258.777471 L466.692906,262.189433 Z" id="Fill-8" sketch:type="MSShapeGroup"></path>
                <path d="M445.245155,246.661039 C445.245155,246.661039 445.840265,240.24179 448.252443,237.234503 C450.672555,234.23515 460.281592,232.433952 460.281592,232.433952 C460.281592,232.433952 463.503119,241.051139 461.678116,244.859841 C459.876918,248.676477 451.846905,252.675614 451.846905,252.675614 L445.245155,246.661039 Z" id="Fill-9" sketch:type="MSShapeGroup"></path>
                <path d="M425.685886,220.349259 C425.685886,220.349259 430.676872,214.612402 435.731336,211.263919 C440.785801,207.915435 456.09202,209.835655 456.09202,209.835655 C456.09202,209.835655 456.774413,224.316656 452.21984,229.180686 C447.697007,234.012976 433.715898,236.18711 433.715898,236.18711 L425.685886,220.349259 Z" id="Fill-10" sketch:type="MSShapeGroup"></path>
                <path d="M409.110099,196.354439 C409.110099,196.354439 410.808145,183.587353 419.615767,180.762566 C428.415455,177.913975 447.419289,181.040284 447.419289,181.040284 C447.419289,181.040284 447.697007,198.925312 443.451892,203.45608 C439.206776,207.978913 418.774679,209.121524 418.774679,209.121524 L409.110099,196.354439 Z" id="Fill-11" sketch:type="MSShapeGroup"></path>
                <path d="M390.383982,169.392005 C390.383982,169.392005 393.581705,158.664162 400.611933,154.633286 C406.785204,151.102302 431.271981,152.37187 431.271981,152.37187 C431.271981,152.37187 425.662081,173.700599 417.941526,177.913975 C411.062058,181.690937 402.349653,182.436808 402.349653,182.436808 L390.383982,169.392005 Z" id="Fill-12" sketch:type="MSShapeGroup"></path>
                <path d="M361.993286,135.637387 C361.993286,135.637387 358.398823,120.537472 368.2221,113.784961 C382.695166,103.866467 436.881881,106.961037 436.881881,106.961037 C436.881881,106.961037 410.99858,149.428061 404.238135,150.943607 C399.128127,152.094152 384.964517,156.061549 384.964517,156.061549 L361.993286,135.637387 Z" id="Fill-13" sketch:type="MSShapeGroup"></path>
                <path d="M320.867243,101.882769 C320.867243,101.882769 317.455281,82.6012166 322.009853,74.0792467 C326.532686,65.5572768 367.698403,34.341793 387.844848,44.8474617 C374.79211,69.8341314 383.322015,100.176788 376.220373,106.992777 C369.126666,113.8167 354.923383,112.110719 351.828813,117.220727 C348.694569,122.33867 320.891047,101.914508 320.891047,101.914508 L320.867243,101.882769 Z" id="Fill-14" sketch:type="MSShapeGroup"></path>
                <path d="M250.874416,80.9269749 C250.874416,80.9269749 244.121905,73.023919 247.58941,59.82042 C251.961482,43.2366983 278.955655,36.0795132 298.951339,4.80055101 C298.951339,4.80055101 325.699533,49.1005119 323.128659,61.6216185 C320.549851,74.1744643 310.972553,78.6020799 309.488747,88.8617699 C307.997005,99.1214599 250.842676,80.8952357 250.842676,80.8952357 L250.874416,80.9269749 Z" id="Fill-15" sketch:type="MSShapeGroup"></path>
                <path d="M213.803053,92.0832967 C213.803053,92.0832967 192.172802,85.8862218 190.776278,71.7543518 C187.673773,40.1976718 211.700332,2.45185167 211.700332,2.45185167 C212.009789,5.23696474 244.859841,40.7927814 246.470604,45.1331143 C250.382458,55.6705222 237.734395,85.4260037 237.734395,85.4260037 L213.803053,92.0832967 Z" id="Fill-16" sketch:type="MSShapeGroup"></path>
                <path d="M174.724187,115.490942 C174.724187,115.490942 156.466224,110.563434 152.030673,104.144185 C146.920665,96.7648258 146.635013,67.5409756 144.373596,55.329326 C152.586109,61.2804223 180.111913,74.0475075 186.372466,78.8797977 C189.506711,83.4105657 192.045845,101.573312 193.751826,104.144185 C195.457807,106.68332 174.747992,115.490942 174.747992,115.490942 L174.724187,115.490942 Z" id="Fill-17" sketch:type="MSShapeGroup"></path>
                <path d="M145.214684,139.041414 C145.214684,139.041414 130.741618,132.225425 126.21085,127.139221 C121.688017,122.029213 117.411163,90.8137295 117.411163,90.8137295 C117.411163,90.8137295 147.476101,103.866467 151.752956,108.698758 C155.998071,113.538983 158.568945,127.424874 158.568945,127.424874 L145.214684,139.041414 Z" id="Fill-18" sketch:type="MSShapeGroup"></path>
                <path d="M123.671716,153.522415 L133.312492,146.698491 C133.312492,146.698491 133.59021,143.572182 130.178248,137.343368 C126.774221,131.106619 105.199513,124.568348 105.199513,124.568348 C105.199513,124.568348 108.048104,142.453376 111.737784,145.555881 C115.427464,148.68219 123.639977,153.490676 123.639977,153.490676 L123.671716,153.522415 Z" id="Fill-19" sketch:type="MSShapeGroup"></path>
                <path d="M106.000927,166.598957 C106.000927,166.598957 96.3363469,163.218734 93.3607987,157.862748 C90.3852506,152.498826 91.996014,136.692715 91.996014,136.692715 C91.996014,136.692715 107.183212,142.516854 109.936586,147.007948 C112.697894,151.506977 113.507243,162.385581 113.507243,162.385581 L106.000927,166.598957 Z" id="Fill-20" sketch:type="MSShapeGroup"></path>
                <path d="M83.3788265,169.106352 C83.3788265,169.106352 81.6728456,160.028947 81.3951278,157.20416 C81.1174099,154.355568 84.521437,147.571319 84.521437,147.571319 C84.521437,147.571319 89.9170977,153.236762 89.9170977,158.632423 C89.9170977,164.028084 89.0839442,171.685161 89.0839442,171.685161 L83.3788265,169.106352 Z" id="Fill-21" sketch:type="MSShapeGroup"></path>
                <path d="M74.571204,165.138955 C74.571204,165.138955 73.4285935,159.473511 73.1508757,155.783831 C72.8731579,152.094152 75.6900101,145.278163 75.6900101,145.278163 C75.6900101,145.278163 79.3796898,153.212958 78.8242542,156.339267 C78.2608837,159.473511 77.3959911,166.844936 77.3959911,166.844936 L74.571204,165.138955 Z" id="Fill-22" sketch:type="MSShapeGroup"></path>
                <path d="M65.7715163,159.187859 C65.7715163,159.187859 65.4937985,155.506114 66.0492341,152.37187 C66.6126046,149.24556 68.9057603,146.420773 68.9057603,146.420773 C68.9057603,146.420773 71.1671769,150.665889 70.8894591,153.522415 C70.6038065,156.371006 68.6201077,161.171557 68.6201077,161.171557 L65.7715163,159.187859 Z" id="Fill-23" sketch:type="MSShapeGroup"></path>
                <path d="M57.7732429,155.101439 C57.7732429,155.101439 56.6306324,152.062413 56.8131327,149.491539 C57.0035677,146.920665 59.2967235,144.59577 59.2967235,144.59577 C59.2967235,144.59577 61.9628147,147.166644 61.9628147,150.665889 C61.9628147,154.173068 60.439334,156.497963 60.439334,156.497963 L57.7732429,155.101439 Z" id="Fill-24" sketch:type="MSShapeGroup"></path>
            </g>
            <path d="M52.3398438,469.26541 L63.9560547,468.249785 C64.5061876,472.904757 65.7862855,476.723892 67.7963867,479.707305 C69.8064879,482.690718 72.9273877,485.102804 77.1591797,486.943633 C81.3909717,488.784463 86.1516663,489.704864 91.4414062,489.704864 C96.1386954,489.704864 100.285789,489.006628 103.882812,487.610137 C107.479836,486.213646 110.156404,484.298789 111.912598,481.865508 C113.668791,479.432228 114.546875,476.776818 114.546875,473.8992 C114.546875,470.979263 113.700529,468.429647 112.007812,466.250274 C110.315096,464.070901 107.522155,462.240678 103.628906,460.759551 C101.132149,459.786239 95.6097433,458.273396 87.0615234,456.220977 C78.5133036,454.168558 72.5254078,452.232542 69.0976562,450.412871 C64.6542747,448.085386 61.3429471,445.197231 59.1635742,441.748321 C56.9842013,438.29941 55.8945312,434.437958 55.8945312,430.163848 C55.8945312,425.466559 57.2275257,421.076141 59.8935547,416.992461 C62.5595836,412.908782 66.4527739,409.809041 71.5732422,407.693145 C76.6937105,405.577249 82.3853854,404.519317 88.6484375,404.519317 C95.5462584,404.519317 101.629368,405.630145 106.897949,407.851836 C112.16653,410.073527 116.21841,413.342537 119.053711,417.658965 C121.889012,421.975393 123.412434,426.863039 123.624023,432.322051 L111.817383,433.210723 C111.182614,427.328532 109.035012,422.885217 105.374512,419.880645 C101.714012,416.876073 96.3079785,415.373809 89.15625,415.373809 C81.7082961,415.373809 76.2811043,416.738541 72.8745117,419.468047 C69.4679192,422.197553 67.7646484,425.487722 67.7646484,429.338653 C67.7646484,432.681768 68.9706911,435.432392 71.3828125,437.590606 C73.752616,439.74882 79.941519,441.959898 89.949707,444.223907 C99.9578951,446.487915 106.823875,448.466248 110.547852,450.158965 C115.964545,452.655722 119.963529,455.818939 122.544922,459.648711 C125.126315,463.478483 126.416992,467.89006 126.416992,472.883575 C126.416992,477.834771 124.999363,482.500252 122.164062,486.880157 C119.328762,491.260061 115.255723,494.666603 109.944824,497.099883 C104.633925,499.533164 98.6566087,500.749785 92.0126953,500.749785 C83.5914292,500.749785 76.5350219,499.522584 70.8432617,497.068145 C65.1515015,494.613705 60.6870279,490.921522 57.449707,485.991485 C54.2123862,481.061447 52.5091154,475.486145 52.3398438,469.26541 L52.3398438,469.26541 Z M178.733221,499.162871 L178.733221,417.087676 L148.074041,417.087676 L148.074041,406.106231 L221.833807,406.106231 L221.833807,417.087676 L191.047674,417.087676 L191.047674,499.162871 L178.733221,499.162871 Z M246.537731,499.162871 L246.537731,406.106231 L313.822887,406.106231 L313.822887,417.087676 L258.852184,417.087676 L258.852184,445.588653 L310.331676,445.588653 L310.331676,456.506621 L258.852184,456.506621 L258.852184,488.181426 L315.981091,488.181426 L315.981091,499.162871 L246.537731,499.162871 Z M388.355913,462.663848 L388.355913,451.745879 L427.774858,451.682403 L427.774858,486.213653 C421.723396,491.037896 415.481596,494.666603 409.049273,497.099883 C402.616949,499.533164 396.015452,500.749785 389.244585,500.749785 C380.103914,500.749785 371.799147,498.792611 364.330034,494.878203 C356.860921,490.963796 351.222143,485.303859 347.41353,477.898223 C343.604918,470.492587 341.70064,462.219558 341.70064,453.078887 C341.70064,444.022852 343.594338,435.569974 347.381792,427.72 C351.169246,419.870026 356.617596,414.04082 363.727007,410.232207 C370.836417,406.423595 379.024812,404.519317 388.292437,404.519317 C395.020986,404.519317 401.104096,405.608987 406.541948,407.78836 C411.979801,409.967733 416.243268,413.003998 419.332476,416.897246 C422.421684,420.790495 424.770293,425.868569 426.378374,432.131621 L415.269976,435.178496 C413.873484,430.438889 412.138476,426.714968 410.064898,424.006621 C407.991319,421.298275 405.02911,419.129514 401.178179,417.500274 C397.327248,415.871034 393.053202,415.056426 388.355913,415.056426 C382.72763,415.056426 377.861142,415.913351 373.756304,417.627227 C369.651466,419.341103 366.340138,421.594498 363.822222,424.387481 C361.304306,427.180463 359.347131,430.248467 357.95064,433.591582 C355.580836,439.346819 354.395952,445.588619 354.395952,452.317168 C354.395952,460.611481 355.824161,467.551515 358.68062,473.137481 C361.53708,478.723446 365.694753,482.87054 371.153765,485.578887 C376.612776,488.287234 382.410244,489.641387 388.546343,489.641387 C393.878401,489.641387 399.083427,488.615193 404.161577,486.562774 C409.239728,484.510355 413.090601,482.320435 415.714312,479.99295 L415.714312,462.663848 L388.355913,462.663848 Z M454.00222,453.840606 C454.00222,438.394565 458.149314,426.302401 466.443626,417.56375 C474.737939,408.8251 485.444212,404.45584 498.562767,404.45584 C507.153305,404.45584 514.897368,406.508228 521.795189,410.613067 C528.69301,414.717905 533.950933,420.441318 537.569115,427.783477 C541.187297,435.125636 542.996361,443.451562 542.996361,452.761504 C542.996361,462.1984 541.092083,470.640699 537.28347,478.088653 C533.474857,485.536607 528.079404,491.175385 521.096947,495.005157 C514.11449,498.834928 506.582013,500.749785 498.49929,500.749785 C489.739481,500.749785 481.910783,498.633921 475.012962,494.402129 C468.115141,490.170337 462.888957,484.394028 459.334251,477.073028 C455.779546,469.752028 454.00222,462.007964 454.00222,453.840606 L454.00222,453.840606 Z M466.697533,454.031035 C466.697533,465.245284 469.712639,474.079018 475.742943,480.5325 C481.773246,486.985983 489.337461,490.212676 498.435814,490.212676 C507.703438,490.212676 515.331129,486.954245 521.319115,480.437285 C527.3071,473.920326 530.301048,464.673999 530.301048,452.698028 C530.301048,445.12312 529.02095,438.511044 526.460716,432.861602 C523.900482,427.21216 520.155402,422.832321 515.225365,419.721953 C510.295327,416.611586 504.762342,415.056426 498.626244,415.056426 C489.908752,415.056426 482.408013,418.050374 476.123802,424.03836 C469.839591,430.026345 466.697533,440.023804 466.697533,454.031035 L466.697533,454.031035 Z" id="STEGO" sketch:type="MSShapeGroup"></path>
        </g>
    </g>
</svg>